<?xml version="1.0" encoding="UTF-8" standalone="no"?>
<!DOCTYPE svg PUBLIC "-//W3C//DTD SVG 1.1//EN"
 "http://www.w3.org/Graphics/SVG/1.1/DTD/svg11.dtd">
<!-- Generated by graphviz version 2.43.0 (0)
 -->
<!-- Title: dependency&#45;cruiser output Pages: 1 -->
<svg width="512pt" height="576pt"
 viewBox="0.00 0.00 512.07 575.62" xmlns="http://www.w3.org/2000/svg" xmlns:xlink="http://www.w3.org/1999/xlink">
<g id="graph0" class="graph" transform="scale(1 1) rotate(0) translate(4 571.62)">
<title>dependency&#45;cruiser output</title>
<polygon fill="white" stroke="transparent" points="-4,4 -4,-571.62 508.07,-571.62 508.07,4 -4,4"/>
<g id="clust1" class="cluster">
<title>cluster_</title>
<path fill="#ffffff" stroke="black" stroke-width="2" d="M406.07,-231.62C406.07,-231.62 484.07,-231.62 484.07,-231.62 490.07,-231.62 496.07,-237.62 496.07,-243.62 496.07,-243.62 496.07,-345.62 496.07,-345.62 496.07,-351.62 490.07,-357.62 484.07,-357.62 484.07,-357.62 406.07,-357.62 406.07,-357.62 400.07,-357.62 394.07,-351.62 394.07,-345.62 394.07,-345.62 394.07,-243.62 394.07,-243.62 394.07,-237.62 400.07,-231.62 406.07,-231.62"/>
</g>
<g id="clust2" class="cluster">
<title>cluster_/web_modules</title>
<path fill="#ffffff" stroke="black" stroke-width="2" d="M414.07,-239.62C414.07,-239.62 476.07,-239.62 476.07,-239.62 482.07,-239.62 488.07,-245.62 488.07,-251.62 488.07,-251.62 488.07,-337.62 488.07,-337.62 488.07,-343.62 482.07,-349.62 476.07,-349.62 476.07,-349.62 414.07,-349.62 414.07,-349.62 408.07,-349.62 402.07,-343.62 402.07,-337.62 402.07,-337.62 402.07,-251.62 402.07,-251.62 402.07,-245.62 408.07,-239.62 414.07,-239.62"/>
<text text-anchor="middle" x="445.07" y="-338.42" font-family="Helvetica,sans-Serif" font-weight="bold" font-size="9.00">web_modules</text>
</g>
<g id="clust3" class="cluster">
<title>cluster_/web_modules/htm</title>
<path fill="#ffffff" stroke="black" stroke-width="2" d="M422.07,-247.62C422.07,-247.62 468.07,-247.62 468.07,-247.62 474.07,-247.62 480.07,-253.62 480.07,-259.62 480.07,-259.62 480.07,-286.62 480.07,-286.62 480.07,-292.62 474.07,-298.62 468.07,-298.62 468.07,-298.62 422.07,-298.62 422.07,-298.62 416.07,-298.62 410.07,-292.62 410.07,-286.62 410.07,-286.62 410.07,-259.62 410.07,-259.62 410.07,-253.62 416.07,-247.62 422.07,-247.62"/>
<text text-anchor="middle" x="445.07" y="-287.42" font-family="Helvetica,sans-Serif" font-weight="bold" font-size="9.00">htm</text>
</g>
<g id="clust4" class="cluster">
<title>cluster_src</title>
<path fill="#ffffff" stroke="black" stroke-width="2" d="M20,-359.62C20,-359.62 374.07,-359.62 374.07,-359.62 380.07,-359.62 386.07,-365.62 386.07,-371.62 386.07,-371.62 386.07,-547.62 386.07,-547.62 386.07,-553.62 380.07,-559.62 374.07,-559.62 374.07,-559.62 20,-559.62 20,-559.62 14,-559.62 8,-553.62 8,-547.62 8,-547.62 8,-371.62 8,-371.62 8,-365.62 14,-359.62 20,-359.62"/>
<text text-anchor="middle" x="197.04" y="-548.42" font-family="Helvetica,sans-Serif" font-weight="bold" font-size="9.00">src</text>
</g>
<g id="clust5" class="cluster">
<title>cluster_src/components</title>
<path fill="#ffffff" stroke="black" stroke-width="2" d="M28,-367.62C28,-367.62 366.07,-367.62 366.07,-367.62 372.07,-367.62 378.07,-373.62 378.07,-379.62 378.07,-379.62 378.07,-522.62 378.07,-522.62 378.07,-528.62 372.07,-534.62 366.07,-534.62 366.07,-534.62 28,-534.62 28,-534.62 22,-534.62 16,-528.62 16,-522.62 16,-522.62 16,-379.62 16,-379.62 16,-373.62 22,-367.62 28,-367.62"/>
<text text-anchor="middle" x="197.04" y="-523.42" font-family="Helvetica,sans-Serif" font-weight="bold" font-size="9.00">components</text>
</g>
<!-- /web_modules/csz.js -->
<g id="node1" class="node">
<title>/web_modules/csz.js</title>
<path fill="#ffffcc" stroke="red" d="M466.4,-324.12C466.4,-324.12 423.74,-324.12 423.74,-324.12 420.9,-324.12 418.07,-321.29 418.07,-318.45 418.07,-318.45 418.07,-312.79 418.07,-312.79 418.07,-309.95 420.9,-307.12 423.74,-307.12 423.74,-307.12 466.4,-307.12 466.4,-307.12 469.24,-307.12 472.07,-309.95 472.07,-312.79 472.07,-312.79 472.07,-318.45 472.07,-318.45 472.07,-321.29 469.24,-324.12 466.4,-324.12"/>
<text text-anchor="middle" x="445.07" y="-312.92" font-family="Helvetica,sans-Serif" font-size="9.00" fill="red">csz.js</text>
</g>
<!-- /web_modules/htm/preact.js -->
<g id="node2" class="node">
<title>/web_modules/htm/preact.js</title>
<path fill="#ffffcc" stroke="red" d="M466.4,-273.12C466.4,-273.12 423.74,-273.12 423.74,-273.12 420.9,-273.12 418.07,-270.29 418.07,-267.45 418.07,-267.45 418.07,-261.79 418.07,-261.79 418.07,-258.95 420.9,-256.12 423.74,-256.12 423.74,-256.12 466.4,-256.12 466.4,-256.12 469.24,-256.12 472.07,-258.95 472.07,-261.79 472.07,-261.79 472.07,-267.45 472.07,-267.45 472.07,-270.29 469.24,-273.12 466.4,-273.12"/>
<text text-anchor="middle" x="445.07" y="-261.92" font-family="Helvetica,sans-Serif" font-size="9.00" fill="red">preact.js</text>
</g>
<!-- src/components/Button.js -->
<g id="node3" class="node">
<title>src/components/Button.js</title>
<g id="a_node3"><a xlink:href="src/components/Button.js" xlink:title="Button.js">
<path fill="#ffffcc" stroke="black" d="M152.36,-393.12C152.36,-393.12 109.7,-393.12 109.7,-393.12 106.86,-393.12 104.03,-390.29 104.03,-387.45 104.03,-387.45 104.03,-381.79 104.03,-381.79 104.03,-378.95 106.86,-376.12 109.7,-376.12 109.7,-376.12 152.36,-376.12 152.36,-376.12 155.2,-376.12 158.03,-378.95 158.03,-381.79 158.03,-381.79 158.03,-387.45 158.03,-387.45 158.03,-390.29 155.2,-393.12 152.36,-393.12"/>
<text text-anchor="middle" x="131.03" y="-381.92" font-family="Helvetica,sans-Serif" font-size="9.00">Button.js</text>
</a>
</g>
</g>
<!-- src/components/Button.js&#45;&gt;/web_modules/csz.js -->
<g id="edge1" class="edge">
<title>src/components/Button.js&#45;&gt;/web_modules/csz.js</title>
<path fill="none" stroke="#000000" stroke-width="2" stroke-opacity="0.200000" d="M132.85,-375.9C135.35,-355.06 144.85,-302.46 178.54,-280.62 224.99,-250.51 248.13,-273.9 303.07,-280.62 323.9,-283.17 377.21,-297.19 411.98,-306.69"/>
<polygon fill="#000000" fill-opacity="0.200000" stroke="#000000" stroke-width="2" stroke-opacity="0.200000" points="411.48,-308.73 417.82,-308.29 412.59,-304.68 411.48,-308.73"/>
</g>
<!-- src/components/Button.js&#45;&gt;/web_modules/htm/preact.js -->
<g id="edge2" class="edge">
<title>src/components/Button.js&#45;&gt;/web_modules/htm/preact.js</title>
<path fill="none" stroke="#000000" stroke-width="2" stroke-opacity="0.200000" d="M133.01,-376.03C135.94,-354.25 146.47,-296.24 178.54,-262.62 224.57,-214.37 250.79,-216.24 316.07,-202.62 346.53,-196.27 357.53,-190.24 386.07,-202.62 408.47,-212.34 426.17,-235.44 435.87,-250.54"/>
<polygon fill="#000000" fill-opacity="0.200000" stroke="#000000" stroke-width="2" stroke-opacity="0.200000" points="434.12,-251.71 439.07,-255.7 437.69,-249.49 434.12,-251.71"/>
</g>
<!-- src/components/Error.js -->
<g id="node4" class="node">
<title>src/components/Error.js</title>
<g id="a_node4"><a xlink:href="src/components/Error.js" xlink:title="Error.js">
<path fill="#ffffcc" stroke="black" d="M152.36,-451.12C152.36,-451.12 109.7,-451.12 109.7,-451.12 106.86,-451.12 104.03,-448.29 104.03,-445.45 104.03,-445.45 104.03,-439.79 104.03,-439.79 104.03,-436.95 106.86,-434.12 109.7,-434.12 109.7,-434.12 152.36,-434.12 152.36,-434.12 155.2,-434.12 158.03,-436.95 158.03,-439.79 158.03,-439.79 158.03,-445.45 158.03,-445.45 158.03,-448.29 155.2,-451.12 152.36,-451.12"/>
<text text-anchor="middle" x="131.03" y="-439.92" font-family="Helvetica,sans-Serif" font-size="9.00">Error.js</text>
</a>
</g>
</g>
<!-- src/components/Error.js&#45;&gt;/web_modules/htm/preact.js -->
<g id="edge3" class="edge">
<title>src/components/Error.js&#45;&gt;/web_modules/htm/preact.js</title>
<path fill="none" stroke="#000000" stroke-width="2" stroke-opacity="0.200000" d="M158.15,-435.07C160.98,-433.34 163.55,-431.22 165.54,-428.62 191.77,-394.47 151.74,-366.32 178.54,-332.62 188.71,-319.83 300.21,-284.55 316.07,-280.62 348.07,-272.69 385.59,-268.59 411.7,-266.54"/>
<polygon fill="#000000" fill-opacity="0.200000" stroke="#000000" stroke-width="2" stroke-opacity="0.200000" points="411.93,-268.63 417.75,-266.08 411.61,-264.44 411.93,-268.63"/>
</g>
<!-- src/components/Footer.js -->
<g id="node5" class="node">
<title>src/components/Footer.js</title>
<g id="a_node5"><a xlink:href="src/components/Footer.js" xlink:title="Footer.js">
<path fill="#ffffcc" stroke="black" d="M75.09,-393.12C75.09,-393.12 32.43,-393.12 32.43,-393.12 29.59,-393.12 26.76,-390.29 26.76,-387.45 26.76,-387.45 26.76,-381.79 26.76,-381.79 26.76,-378.95 29.59,-376.12 32.43,-376.12 32.43,-376.12 75.09,-376.12 75.09,-376.12 77.93,-376.12 80.76,-378.95 80.76,-381.79 80.76,-381.79 80.76,-387.45 80.76,-387.45 80.76,-390.29 77.93,-393.12 75.09,-393.12"/>
<text text-anchor="middle" x="53.76" y="-381.92" font-family="Helvetica,sans-Serif" font-size="9.00">Footer.js</text>
</a>
</g>
</g>
<!-- src/components/Footer.js&#45;&gt;/web_modules/csz.js -->
<g id="edge4" class="edge">
<title>src/components/Footer.js&#45;&gt;/web_modules/csz.js</title>
<path fill="none" stroke="#000000" stroke-width="2" stroke-opacity="0.200000" d="M54.58,-375.83C53.82,-329.8 52.76,-116.96 96.52,-72.62 130.77,-37.91 156.29,-56.62 205.05,-56.62 205.05,-56.62 205.05,-56.62 275.82,-56.62 328.25,-56.62 355.47,-56.04 386.07,-98.62 399.24,-116.95 380.08,-283.91 394.07,-301.62 398.57,-307.31 405.18,-310.81 412.13,-312.93"/>
<polygon fill="#000000" fill-opacity="0.200000" stroke="#000000" stroke-width="2" stroke-opacity="0.200000" points="411.68,-314.98 418.01,-314.4 412.7,-310.91 411.68,-314.98"/>
</g>
<!-- src/components/Footer.js&#45;&gt;/web_modules/htm/preact.js -->
<g id="edge5" class="edge">
<title>src/components/Footer.js&#45;&gt;/web_modules/htm/preact.js</title>
<path fill="none" stroke="#000000" stroke-width="2" stroke-opacity="0.200000" d="M54.68,-375.95C54.39,-328.54 55.22,-101.01 96.52,-47.62 128.27,-6.58 153.17,-4.62 205.05,-4.62 205.05,-4.62 205.05,-4.62 275.82,-4.62 325.33,-4.62 349.53,12.8 386.07,-20.62 420.52,-52.12 437.95,-202.02 442.7,-249.89"/>
<polygon fill="#000000" fill-opacity="0.200000" stroke="#000000" stroke-width="2" stroke-opacity="0.200000" points="440.62,-250.17 443.29,-255.94 444.8,-249.77 440.62,-250.17"/>
</g>
<!-- src/components/Header.js -->
<g id="node6" class="node">
<title>src/components/Header.js</title>
<g id="a_node6"><a xlink:href="src/components/Header.js" xlink:title="Header.js">
<path fill="#ffffcc" stroke="black" d="M75.12,-451.12C75.12,-451.12 32.4,-451.12 32.4,-451.12 29.57,-451.12 26.73,-448.29 26.73,-445.45 26.73,-445.45 26.73,-439.79 26.73,-439.79 26.73,-436.95 29.57,-434.12 32.4,-434.12 32.4,-434.12 75.12,-434.12 75.12,-434.12 77.95,-434.12 80.79,-436.95 80.79,-439.79 80.79,-439.79 80.79,-445.45 80.79,-445.45 80.79,-448.29 77.95,-451.12 75.12,-451.12"/>
<text text-anchor="middle" x="53.76" y="-439.92" font-family="Helvetica,sans-Serif" font-size="9.00">Header.js</text>
</a>
</g>
</g>
<!-- src/components/Header.js&#45;&gt;/web_modules/csz.js -->
<g id="edge7" class="edge">
<title>src/components/Header.js&#45;&gt;/web_modules/csz.js</title>
<path fill="none" stroke="#000000" stroke-width="2" stroke-opacity="0.200000" d="M78.22,-434.11C80.28,-432.57 82.11,-430.75 83.52,-428.62 98.99,-405.24 76.19,-195.93 96.52,-176.62 118.76,-155.49 135.6,-169.97 165.54,-176.62 271.15,-200.07 313.03,-199.83 386.07,-279.62 393.1,-287.29 386.44,-294.55 394.07,-301.62 399.03,-306.22 405.38,-309.32 411.88,-311.42"/>
<polygon fill="#000000" fill-opacity="0.200000" stroke="#000000" stroke-width="2" stroke-opacity="0.200000" points="411.5,-313.49 417.85,-313.07 412.62,-309.44 411.5,-313.49"/>
</g>
<!-- src/components/Header.js&#45;&gt;/web_modules/htm/preact.js -->
<g id="edge8" class="edge">
<title>src/components/Header.js&#45;&gt;/web_modules/htm/preact.js</title>
<path fill="none" stroke="#000000" stroke-width="2" stroke-opacity="0.200000" d="M78.23,-434.12C80.28,-432.57 82.11,-430.75 83.52,-428.62 99.88,-403.83 76.8,-183.83 96.52,-161.62 139.6,-113.12 332.13,-88.58 386.07,-124.62 428.98,-153.29 440.19,-220.22 443.08,-249.95"/>
<polygon fill="#000000" fill-opacity="0.200000" stroke="#000000" stroke-width="2" stroke-opacity="0.200000" points="441,-250.22 443.6,-256.02 445.18,-249.86 441,-250.22"/>
</g>
<!-- src/components/Title.js -->
<g id="node7" class="node">
<title>src/components/Title.js</title>
<g id="a_node7"><a xlink:href="src/components/Title.js" xlink:title="Title.js">
<path fill="#ffffcc" stroke="black" d="M152.36,-422.12C152.36,-422.12 109.7,-422.12 109.7,-422.12 106.86,-422.12 104.03,-419.29 104.03,-416.45 104.03,-416.45 104.03,-410.79 104.03,-410.79 104.03,-407.95 106.86,-405.12 109.7,-405.12 109.7,-405.12 152.36,-405.12 152.36,-405.12 155.2,-405.12 158.03,-407.95 158.03,-410.79 158.03,-410.79 158.03,-416.45 158.03,-416.45 158.03,-419.29 155.2,-422.12 152.36,-422.12"/>
<text text-anchor="middle" x="131.03" y="-410.92" font-family="Helvetica,sans-Serif" font-size="9.00">Title.js</text>
</a>
</g>
</g>
<!-- src/components/Header.js&#45;&gt;src/components/Title.js -->
<g id="edge6" class="edge">
<title>src/components/Header.js&#45;&gt;src/components/Title.js</title>
<path fill="none" stroke="#000000" stroke-width="2" stroke-opacity="0.200000" d="M76.94,-434.08C84.83,-431.03 93.82,-427.57 102.13,-424.37"/>
<polygon fill="#000000" fill-opacity="0.200000" stroke="#000000" stroke-width="2" stroke-opacity="0.200000" points="102.91,-426.32 107.75,-422.2 101.4,-422.4 102.91,-426.32"/>
</g>
<!-- src/components/Title.js&#45;&gt;/web_modules/csz.js -->
<g id="edge28" class="edge">
<title>src/components/Title.js&#45;&gt;/web_modules/csz.js</title>
<path fill="none" stroke="#000000" stroke-width="2" stroke-opacity="0.200000" d="M158.07,-405.53C160.84,-403.9 163.42,-401.95 165.54,-399.62 178.45,-385.52 164.07,-371.11 178.54,-358.62 244.92,-301.32 356.77,-304.94 411.68,-310.94"/>
<polygon fill="#000000" fill-opacity="0.200000" stroke="#000000" stroke-width="2" stroke-opacity="0.200000" points="411.57,-313.04 417.77,-311.64 412.05,-308.87 411.57,-313.04"/>
</g>
<!-- src/components/Title.js&#45;&gt;/web_modules/htm/preact.js -->
<g id="edge29" class="edge">
<title>src/components/Title.js&#45;&gt;/web_modules/htm/preact.js</title>
<path fill="none" stroke="#000000" stroke-width="2" stroke-opacity="0.200000" d="M158.07,-406C160.91,-404.29 163.5,-402.18 165.54,-399.62 186.88,-372.81 158.14,-351.15 178.54,-323.62 219.25,-268.67 249.53,-270.38 316.07,-254.62 348,-247.06 385.53,-251.5 411.66,-256.64"/>
<polygon fill="#000000" fill-opacity="0.200000" stroke="#000000" stroke-width="2" stroke-opacity="0.200000" points="411.42,-258.73 417.72,-257.88 412.27,-254.62 411.42,-258.73"/>
</g>
<!-- src/components/Hero.js -->
<g id="node8" class="node">
<title>src/components/Hero.js</title>
<g id="a_node8"><a xlink:href="src/components/Hero.js" xlink:title="Hero.js">
<path fill="#ffffcc" stroke="black" d="M75.09,-422.12C75.09,-422.12 32.43,-422.12 32.43,-422.12 29.59,-422.12 26.76,-419.29 26.76,-416.45 26.76,-416.45 26.76,-410.79 26.76,-410.79 26.76,-407.95 29.59,-405.12 32.43,-405.12 32.43,-405.12 75.09,-405.12 75.09,-405.12 77.93,-405.12 80.76,-407.95 80.76,-410.79 80.76,-410.79 80.76,-416.45 80.76,-416.45 80.76,-419.29 77.93,-422.12 75.09,-422.12"/>
<text text-anchor="middle" x="53.76" y="-410.92" font-family="Helvetica,sans-Serif" font-size="9.00">Hero.js</text>
</a>
</g>
</g>
<!-- src/components/Hero.js&#45;&gt;/web_modules/csz.js -->
<g id="edge10" class="edge">
<title>src/components/Hero.js&#45;&gt;/web_modules/csz.js</title>
<path fill="none" stroke="#000000" stroke-width="2" stroke-opacity="0.200000" d="M78.23,-405.12C80.28,-403.57 82.11,-401.75 83.52,-399.62 100.35,-374.07 75.99,-147.29 96.52,-124.62 129.25,-88.48 156.29,-108.62 205.05,-108.62 205.05,-108.62 205.05,-108.62 275.82,-108.62 333.39,-108.62 356.42,-127.27 386.07,-176.62 400.41,-200.48 376.55,-279.99 394.07,-301.62 398.59,-307.2 405.14,-310.66 412.02,-312.79"/>
<polygon fill="#000000" fill-opacity="0.200000" stroke="#000000" stroke-width="2" stroke-opacity="0.200000" points="411.51,-314.82 417.84,-314.27 412.55,-310.75 411.51,-314.82"/>
</g>
<!-- src/components/Hero.js&#45;&gt;/web_modules/htm/preact.js -->
<g id="edge11" class="edge">
<title>src/components/Hero.js&#45;&gt;/web_modules/htm/preact.js</title>
<path fill="none" stroke="#000000" stroke-width="2" stroke-opacity="0.200000" d="M78.51,-404.92C80.45,-403.42 82.18,-401.66 83.52,-399.62 101.82,-371.72 73.88,-124.13 96.52,-99.62 118.45,-75.89 360.13,-53.36 386.07,-72.62 415.26,-94.29 435.42,-208.37 441.86,-249.67"/>
<polygon fill="#000000" fill-opacity="0.200000" stroke="#000000" stroke-width="2" stroke-opacity="0.200000" points="439.79,-250.04 442.78,-255.65 443.95,-249.4 439.79,-250.04"/>
</g>
<!-- src/components/Hero.js&#45;&gt;src/components/Button.js -->
<g id="edge9" class="edge">
<title>src/components/Hero.js&#45;&gt;src/components/Button.js</title>
<path fill="none" stroke="#000000" stroke-width="2" stroke-opacity="0.200000" d="M76.94,-405.08C84.83,-402.03 93.82,-398.57 102.13,-395.37"/>
<polygon fill="#000000" fill-opacity="0.200000" stroke="#000000" stroke-width="2" stroke-opacity="0.200000" points="102.91,-397.32 107.75,-393.2 101.4,-393.4 102.91,-397.32"/>
</g>
<!-- src/components/Item.js -->
<g id="node9" class="node">
<title>src/components/Item.js</title>
<g id="a_node9"><a xlink:href="src/components/Item.js" xlink:title="Item.js">
<path fill="#ffffcc" stroke="black" d="M364.4,-509.12C364.4,-509.12 321.74,-509.12 321.74,-509.12 318.9,-509.12 316.07,-506.29 316.07,-503.45 316.07,-503.45 316.07,-497.79 316.07,-497.79 316.07,-494.95 318.9,-492.12 321.74,-492.12 321.74,-492.12 364.4,-492.12 364.4,-492.12 367.24,-492.12 370.07,-494.95 370.07,-497.79 370.07,-497.79 370.07,-503.45 370.07,-503.45 370.07,-506.29 367.24,-509.12 364.4,-509.12"/>
<text text-anchor="middle" x="343.07" y="-497.92" font-family="Helvetica,sans-Serif" font-size="9.00">Item.js</text>
</a>
</g>
</g>
<!-- src/components/Item.js&#45;&gt;/web_modules/csz.js -->
<g id="edge12" class="edge">
<title>src/components/Item.js&#45;&gt;/web_modules/csz.js</title>
<path fill="none" stroke="#000000" stroke-width="2" stroke-opacity="0.200000" d="M370.2,-493.38C376.02,-490.76 381.74,-487.26 386.07,-482.62 427.68,-437.97 439.64,-361.92 442.91,-330.19"/>
<polygon fill="#000000" fill-opacity="0.200000" stroke="#000000" stroke-width="2" stroke-opacity="0.200000" points="445.01,-330.29 443.48,-324.12 440.83,-329.9 445.01,-330.29"/>
</g>
<!-- src/components/Item.js&#45;&gt;/web_modules/htm/preact.js -->
<g id="edge13" class="edge">
<title>src/components/Item.js&#45;&gt;/web_modules/htm/preact.js</title>
<path fill="none" stroke="#000000" stroke-width="2" stroke-opacity="0.200000" d="M356.11,-492.04C366.14,-484.13 379.77,-471.38 386.07,-456.62 393.89,-438.31 381.54,-293.09 394.07,-277.62 398.61,-272.01 405.24,-268.64 412.19,-266.66"/>
<polygon fill="#000000" fill-opacity="0.200000" stroke="#000000" stroke-width="2" stroke-opacity="0.200000" points="412.69,-268.7 418.07,-265.31 411.75,-264.61 412.69,-268.7"/>
</g>
<!-- src/components/ItemList.js -->
<g id="node10" class="node">
<title>src/components/ItemList.js</title>
<g id="a_node10"><a xlink:href="src/components/ItemList.js" xlink:title="ItemList.js">
<path fill="#ffffcc" stroke="black" d="M297.16,-509.12C297.16,-509.12 252.47,-509.12 252.47,-509.12 249.64,-509.12 246.81,-506.29 246.81,-503.45 246.81,-503.45 246.81,-497.79 246.81,-497.79 246.81,-494.95 249.64,-492.12 252.47,-492.12 252.47,-492.12 297.16,-492.12 297.16,-492.12 299.99,-492.12 302.83,-494.95 302.83,-497.79 302.83,-497.79 302.83,-503.45 302.83,-503.45 302.83,-506.29 299.99,-509.12 297.16,-509.12"/>
<text text-anchor="middle" x="274.82" y="-497.92" font-family="Helvetica,sans-Serif" font-size="9.00">ItemList.js</text>
</a>
</g>
</g>
<!-- src/components/ItemList.js&#45;&gt;/web_modules/htm/preact.js -->
<g id="edge15" class="edge">
<title>src/components/ItemList.js&#45;&gt;/web_modules/htm/preact.js</title>
<path fill="none" stroke="#000000" stroke-width="2" stroke-opacity="0.200000" d="M292.17,-492.05C317.48,-477.77 365.4,-446.49 386.07,-404.62 398.59,-379.26 376.08,-299.43 394.07,-277.62 398.53,-272.22 404.92,-268.9 411.65,-266.9"/>
<polygon fill="#000000" fill-opacity="0.200000" stroke="#000000" stroke-width="2" stroke-opacity="0.200000" points="412.53,-268.85 417.88,-265.41 411.55,-264.76 412.53,-268.85"/>
</g>
<!-- src/components/ItemList.js&#45;&gt;src/components/Item.js -->
<g id="edge14" class="edge">
<title>src/components/ItemList.js&#45;&gt;src/components/Item.js</title>
<path fill="none" stroke="#000000" stroke-width="2" stroke-opacity="0.200000" d="M303.15,-500.62C305.22,-500.62 307.31,-500.62 309.41,-500.62"/>
<polygon fill="#000000" fill-opacity="0.200000" stroke="#000000" stroke-width="2" stroke-opacity="0.200000" points="309.66,-502.72 315.66,-500.62 309.66,-498.52 309.66,-502.72"/>
</g>
<!-- src/components/Loading.js -->
<g id="node11" class="node">
<title>src/components/Loading.js</title>
<g id="a_node11"><a xlink:href="src/components/Loading.js" xlink:title="Loading.js">
<path fill="#ffffcc" stroke="black" d="M153.9,-480.12C153.9,-480.12 108.17,-480.12 108.17,-480.12 105.33,-480.12 102.5,-477.29 102.5,-474.45 102.5,-474.45 102.5,-468.79 102.5,-468.79 102.5,-465.95 105.33,-463.12 108.17,-463.12 108.17,-463.12 153.9,-463.12 153.9,-463.12 156.73,-463.12 159.56,-465.95 159.56,-468.79 159.56,-468.79 159.56,-474.45 159.56,-474.45 159.56,-477.29 156.73,-480.12 153.9,-480.12"/>
<text text-anchor="middle" x="131.03" y="-468.92" font-family="Helvetica,sans-Serif" font-size="9.00">Loading.js</text>
</a>
</g>
</g>
<!-- src/components/Loading.js&#45;&gt;/web_modules/csz.js -->
<g id="edge16" class="edge">
<title>src/components/Loading.js&#45;&gt;/web_modules/csz.js</title>
<path fill="none" stroke="#000000" stroke-width="2" stroke-opacity="0.200000" d="M159.14,-463C161.52,-461.48 163.71,-459.7 165.54,-457.62 179.87,-441.36 163.79,-426.5 178.54,-410.62 211.06,-375.61 348.37,-338.75 411.76,-323.22"/>
<polygon fill="#000000" fill-opacity="0.200000" stroke="#000000" stroke-width="2" stroke-opacity="0.200000" points="412.32,-325.25 417.66,-321.79 411.33,-321.17 412.32,-325.25"/>
</g>
<!-- src/components/Loading.js&#45;&gt;/web_modules/htm/preact.js -->
<g id="edge17" class="edge">
<title>src/components/Loading.js&#45;&gt;/web_modules/htm/preact.js</title>
<path fill="none" stroke="#000000" stroke-width="2" stroke-opacity="0.200000" d="M159.7,-462.99C161.91,-461.48 163.91,-459.7 165.54,-457.62 188.35,-428.61 156.19,-404.98 178.54,-375.62 210.41,-333.75 344.48,-295.19 394.07,-277.62 399.78,-275.6 405.95,-273.74 411.95,-272.1"/>
<polygon fill="#000000" fill-opacity="0.200000" stroke="#000000" stroke-width="2" stroke-opacity="0.200000" points="412.6,-274.09 417.86,-270.53 411.53,-270.04 412.6,-274.09"/>
</g>
<!-- src/components/Section.js -->
<g id="node12" class="node">
<title>src/components/Section.js</title>
<g id="a_node12"><a xlink:href="src/components/Section.js" xlink:title="Section.js">
<path fill="#ffffcc" stroke="black" d="M227.91,-495.12C227.91,-495.12 184.2,-495.12 184.2,-495.12 181.37,-495.12 178.53,-492.29 178.53,-489.45 178.53,-489.45 178.53,-483.79 178.53,-483.79 178.53,-480.95 181.37,-478.12 184.2,-478.12 184.2,-478.12 227.91,-478.12 227.91,-478.12 230.74,-478.12 233.57,-480.95 233.57,-483.79 233.57,-483.79 233.57,-489.45 233.57,-489.45 233.57,-492.29 230.74,-495.12 227.91,-495.12"/>
<text text-anchor="middle" x="206.05" y="-483.92" font-family="Helvetica,sans-Serif" font-size="9.00">Section.js</text>
</a>
</g>
</g>
<!-- src/components/Section.js&#45;&gt;/web_modules/csz.js -->
<g id="edge19" class="edge">
<title>src/components/Section.js&#45;&gt;/web_modules/csz.js</title>
<path fill="none" stroke="#000000" stroke-width="2" stroke-opacity="0.200000" d="M233.83,-484.7C271.81,-480.69 341.62,-468.33 386.07,-430.62 418,-403.53 434.25,-354.53 440.68,-330.18"/>
<polygon fill="#000000" fill-opacity="0.200000" stroke="#000000" stroke-width="2" stroke-opacity="0.200000" points="442.74,-330.6 442.17,-324.27 438.66,-329.58 442.74,-330.6"/>
</g>
<!-- src/components/Section.js&#45;&gt;/web_modules/htm/preact.js -->
<g id="edge20" class="edge">
<title>src/components/Section.js&#45;&gt;/web_modules/htm/preact.js</title>
<path fill="none" stroke="#000000" stroke-width="2" stroke-opacity="0.200000" d="M218.48,-478.11C257.83,-448.81 385.42,-353.76 386.07,-352.62 394.36,-338.05 383.13,-290.32 394.07,-277.62 398.64,-272.31 405.08,-269.04 411.82,-267.04"/>
<polygon fill="#000000" fill-opacity="0.200000" stroke="#000000" stroke-width="2" stroke-opacity="0.200000" points="412.7,-268.99 418.04,-265.55 411.72,-264.91 412.7,-268.99"/>
</g>
<!-- src/components/Section.js&#45;&gt;src/components/ItemList.js -->
<g id="edge18" class="edge">
<title>src/components/Section.js&#45;&gt;src/components/ItemList.js</title>
<path fill="none" stroke="#000000" stroke-width="2" stroke-opacity="0.200000" d="M233.82,-492.23C236.06,-492.7 238.34,-493.18 240.61,-493.66"/>
<polygon fill="#000000" fill-opacity="0.200000" stroke="#000000" stroke-width="2" stroke-opacity="0.200000" points="240.3,-495.74 246.6,-494.91 241.16,-491.63 240.3,-495.74"/>
</g>
<!-- src/components/SectionList.js -->
<g id="node13" class="node">
<title>src/components/SectionList.js</title>
<g id="a_node13"><a xlink:href="src/components/SectionList.js" xlink:title="SectionList.js">
<path fill="#ffffcc" stroke="black" d="M159.89,-509.12C159.89,-509.12 102.17,-509.12 102.17,-509.12 99.34,-509.12 96.51,-506.29 96.51,-503.45 96.51,-503.45 96.51,-497.79 96.51,-497.79 96.51,-494.95 99.34,-492.12 102.17,-492.12 102.17,-492.12 159.89,-492.12 159.89,-492.12 162.72,-492.12 165.56,-494.95 165.56,-497.79 165.56,-497.79 165.56,-503.45 165.56,-503.45 165.56,-506.29 162.72,-509.12 159.89,-509.12"/>
<text text-anchor="middle" x="131.03" y="-497.92" font-family="Helvetica,sans-Serif" font-size="9.00">SectionList.js</text>
</a>
</g>
</g>
<!-- src/components/SectionList.js&#45;&gt;/web_modules/csz.js -->
<g id="edge22" class="edge">
<title>src/components/SectionList.js&#45;&gt;/web_modules/csz.js</title>
<path fill="none" stroke="#000000" stroke-width="2" stroke-opacity="0.200000" d="M156.13,-492.03C159.41,-490.45 162.65,-488.64 165.54,-486.62 172.51,-481.76 171.84,-477.83 178.54,-472.62 228.32,-433.9 248.71,-436.58 303.07,-404.62 347.8,-378.32 399.02,-345.22 425.71,-327.73"/>
<polygon fill="#000000" fill-opacity="0.200000" stroke="#000000" stroke-width="2" stroke-opacity="0.200000" points="427.16,-329.29 431.02,-324.24 424.86,-325.78 427.16,-329.29"/>
</g>
<!-- src/components/SectionList.js&#45;&gt;/web_modules/htm/preact.js -->
<g id="edge23" class="edge">
<title>src/components/SectionList.js&#45;&gt;/web_modules/htm/preact.js</title>
<path fill="none" stroke="#000000" stroke-width="2" stroke-opacity="0.200000" d="M159.18,-492.04C161.55,-490.51 163.73,-488.72 165.54,-486.62 180.83,-468.92 164.89,-454.61 178.54,-435.62 210.6,-391.05 352.43,-345 386.07,-301.62 392.96,-292.73 385.86,-285.3 394.07,-277.62 399.04,-272.98 405.45,-269.94 412.01,-267.97"/>
<polygon fill="#000000" fill-opacity="0.200000" stroke="#000000" stroke-width="2" stroke-opacity="0.200000" points="412.74,-269.96 418.04,-266.45 411.71,-265.88 412.74,-269.96"/>
</g>
<!-- src/components/SectionList.js&#45;&gt;src/components/Section.js -->
<g id="edge21" class="edge">
<title>src/components/SectionList.js&#45;&gt;src/components/Section.js</title>
<path fill="none" stroke="#000000" stroke-width="2" stroke-opacity="0.200000" d="M165.55,-494.19C167.86,-493.75 170.19,-493.3 172.49,-492.86"/>
<polygon fill="#000000" fill-opacity="0.200000" stroke="#000000" stroke-width="2" stroke-opacity="0.200000" points="173.02,-494.9 178.52,-491.71 172.23,-490.77 173.02,-494.9"/>
</g>
<!-- src/components/Sections.js -->
<g id="node14" class="node">
<title>src/components/Sections.js</title>
<g id="a_node14"><a xlink:href="src/components/Sections.js" xlink:title="Sections.js">
<path fill="#ffffcc" stroke="black" d="M77.61,-480.12C77.61,-480.12 29.91,-480.12 29.91,-480.12 27.07,-480.12 24.24,-477.29 24.24,-474.45 24.24,-474.45 24.24,-468.79 24.24,-468.79 24.24,-465.95 27.07,-463.12 29.91,-463.12 29.91,-463.12 77.61,-463.12 77.61,-463.12 80.45,-463.12 83.28,-465.95 83.28,-468.79 83.28,-468.79 83.28,-474.45 83.28,-474.45 83.28,-477.29 80.45,-480.12 77.61,-480.12"/>
<text text-anchor="middle" x="53.76" y="-468.92" font-family="Helvetica,sans-Serif" font-size="9.00">Sections.js</text>
</a>
</g>
</g>
<!-- src/components/Sections.js&#45;&gt;/web_modules/htm/preact.js -->
<g id="edge27" class="edge">
<title>src/components/Sections.js&#45;&gt;/web_modules/htm/preact.js</title>
<path fill="none" stroke="#000000" stroke-width="2" stroke-opacity="0.200000" d="M78.02,-462.97C80.11,-461.45 82.01,-459.68 83.52,-457.62 106.65,-426.1 84.16,-407.71 96.52,-370.62 120.78,-297.79 117.92,-265.71 178.54,-218.62 252,-161.56 302.31,-151.19 386.07,-191.62 411.22,-203.76 428.81,-232.68 437.61,-250.26"/>
<polygon fill="#000000" fill-opacity="0.200000" stroke="#000000" stroke-width="2" stroke-opacity="0.200000" points="435.76,-251.25 440.26,-255.75 439.54,-249.43 435.76,-251.25"/>
</g>
<!-- src/components/Sections.js&#45;&gt;src/components/Error.js -->
<g id="edge24" class="edge">
<title>src/components/Sections.js&#45;&gt;src/components/Error.js</title>
<path fill="none" stroke="#000000" stroke-width="2" stroke-opacity="0.200000" d="M76.94,-463.08C84.83,-460.03 93.82,-456.57 102.13,-453.37"/>
<polygon fill="#000000" fill-opacity="0.200000" stroke="#000000" stroke-width="2" stroke-opacity="0.200000" points="102.91,-455.32 107.75,-451.2 101.4,-451.4 102.91,-455.32"/>
</g>
<!-- src/components/Sections.js&#45;&gt;src/components/Loading.js -->
<g id="edge25" class="edge">
<title>src/components/Sections.js&#45;&gt;src/components/Loading.js</title>
<path fill="none" stroke="#000000" stroke-width="2" stroke-opacity="0.200000" d="M83.65,-471.62C87.77,-471.62 92.04,-471.62 96.25,-471.62"/>
<polygon fill="#000000" fill-opacity="0.200000" stroke="#000000" stroke-width="2" stroke-opacity="0.200000" points="96.34,-473.72 102.34,-471.62 96.34,-469.52 96.34,-473.72"/>
</g>
<!-- src/components/Sections.js&#45;&gt;src/components/SectionList.js -->
<g id="edge26" class="edge">
<title>src/components/Sections.js&#45;&gt;src/components/SectionList.js</title>
<path fill="none" stroke="#000000" stroke-width="2" stroke-opacity="0.200000" d="M76.94,-480.16C84.83,-483.2 93.82,-486.67 102.13,-489.87"/>
<polygon fill="#000000" fill-opacity="0.200000" stroke="#000000" stroke-width="2" stroke-opacity="0.200000" points="101.4,-491.84 107.75,-492.04 102.91,-487.92 101.4,-491.84"/>
</g>
</g>
</svg>
