<?xml version="1.0" encoding="UTF-8" standalone="no"?>
<!DOCTYPE svg PUBLIC "-//W3C//DTD SVG 1.1//EN"
 "http://www.w3.org/Graphics/SVG/1.1/DTD/svg11.dtd">
<!-- Generated by graphviz version 3.0.0 (20220226.1711)
 -->
<!-- Title: dependency&#45;cruiser output Pages: 1 -->
<svg width="525pt" height="834pt"
 viewBox="0.00 0.00 525.00 834.40" xmlns="http://www.w3.org/2000/svg" xmlns:xlink="http://www.w3.org/1999/xlink">
<g id="graph0" class="graph" transform="scale(1 1) rotate(0) translate(4 830.4)">
<title>dependency&#45;cruiser output</title>
<polygon fill="white" stroke="transparent" points="-4,4 -4,-830.4 521,-830.4 521,4 -4,4"/>
<g id="clust1" class="cluster">
<title>cluster_@testing&#45;library</title>
<path fill="#ffffff" stroke="black" stroke-width="2" d="M188,-78C188,-78 270,-78 270,-78 276,-78 282,-84 282,-90 282,-90 282,-178 282,-178 282,-184 276,-190 270,-190 270,-190 188,-190 188,-190 182,-190 176,-184 176,-178 176,-178 176,-90 176,-90 176,-84 182,-78 188,-78"/>
<text text-anchor="middle" x="229" y="-178.8" font-family="Helvetica,sans-Serif" font-weight="bold" font-size="9.00">@testing&#45;library</text>
</g>
<g id="clust2" class="cluster">
<title>cluster_@testing&#45;library/jest&#45;dom</title>
<path fill="#ffffff" stroke="black" stroke-width="2" d="M196,-112C196,-112 262,-112 262,-112 268,-112 274,-118 274,-124 274,-124 274,-152 274,-152 274,-158 268,-164 262,-164 262,-164 196,-164 196,-164 190,-164 184,-158 184,-152 184,-152 184,-124 184,-124 184,-118 190,-112 196,-112"/>
<text text-anchor="middle" x="229" y="-152.8" font-family="Helvetica,sans-Serif" font-weight="bold" font-size="9.00">jest&#45;dom</text>
</g>
<g id="clust3" class="cluster">
<title>cluster_src</title>
<path fill="#ffffff" stroke="black" stroke-width="2" d="M20,-336C20,-336 497,-336 497,-336 503,-336 509,-342 509,-348 509,-348 509,-620 509,-620 509,-626 503,-632 497,-632 497,-632 20,-632 20,-632 14,-632 8,-626 8,-620 8,-620 8,-348 8,-348 8,-342 14,-336 20,-336"/>
<text text-anchor="middle" x="258.5" y="-620.8" font-family="Helvetica,sans-Serif" font-weight="bold" font-size="9.00">src</text>
</g>
<g id="clust4" class="cluster">
<title>cluster_src/components</title>
<path fill="#ffffff" stroke="black" stroke-width="2" d="M90,-344C90,-344 489,-344 489,-344 495,-344 501,-350 501,-356 501,-356 501,-594 501,-594 501,-600 495,-606 489,-606 489,-606 90,-606 90,-606 84,-606 78,-600 78,-594 78,-594 78,-356 78,-356 78,-350 84,-344 90,-344"/>
<text text-anchor="middle" x="289.5" y="-594.8" font-family="Helvetica,sans-Serif" font-weight="bold" font-size="9.00">components</text>
</g>
<!-- @testing&#45;library/jest&#45;dom/extend&#45;expect -->
<g id="node1" class="node">
<title>@testing&#45;library/jest&#45;dom/extend&#45;expect</title>
<g id="a_node1"><a xlink:title="extend&#45;expect">
<path fill="#ffffcc" stroke="red" d="M260,-138C260,-138 198,-138 198,-138 195,-138 192,-135 192,-132 192,-132 192,-126 192,-126 192,-123 195,-120 198,-120 198,-120 260,-120 260,-120 263,-120 266,-123 266,-126 266,-126 266,-132 266,-132 266,-135 263,-138 260,-138"/>
<text text-anchor="start" x="200" y="-126.8" font-family="Helvetica,sans-Serif" font-size="9.00" fill="red">extend&#45;expect</text>
</a>
</g>
</g>
<!-- @testing&#45;library/preact -->
<g id="node2" class="node">
<title>@testing&#45;library/preact</title>
<g id="a_node2"><a xlink:title="preact">
<path fill="#ffffcc" stroke="red" d="M250,-104C250,-104 208,-104 208,-104 205,-104 202,-101 202,-98 202,-98 202,-92 202,-92 202,-89 205,-86 208,-86 208,-86 250,-86 250,-86 253,-86 256,-89 256,-92 256,-92 256,-98 256,-98 256,-101 253,-104 250,-104"/>
<text text-anchor="start" x="216" y="-92.8" font-family="Helvetica,sans-Serif" font-size="9.00" fill="red">preact</text>
</a>
</g>
</g>
<!-- csz -->
<g id="node3" class="node">
<title>csz</title>
<g id="a_node3"><a xlink:title="csz">
<path fill="#ffffcc" stroke="red" d="M416,-673C416,-673 374,-673 374,-673 371,-673 368,-670 368,-667 368,-667 368,-661 368,-661 368,-658 371,-655 374,-655 374,-655 416,-655 416,-655 419,-655 422,-658 422,-661 422,-661 422,-667 422,-667 422,-670 419,-673 416,-673"/>
<text text-anchor="middle" x="395" y="-661.8" font-family="Helvetica,sans-Serif" font-size="9.00" fill="red">csz</text>
</a>
</g>
</g>
<!-- preact -->
<g id="node4" class="node">
<title>preact</title>
<g id="a_node4"><a xlink:title="preact">
<path fill="#ffffcc" stroke="red" d="M487,-328C487,-328 445,-328 445,-328 442,-328 439,-325 439,-322 439,-322 439,-316 439,-316 439,-313 442,-310 445,-310 445,-310 487,-310 487,-310 490,-310 493,-313 493,-316 493,-316 493,-322 493,-322 493,-325 490,-328 487,-328"/>
<text text-anchor="start" x="453" y="-316.8" font-family="Helvetica,sans-Serif" font-size="9.00" fill="red">preact</text>
</a>
</g>
</g>
<!-- preact&#45;fetch -->
<g id="node5" class="node">
<title>preact&#45;fetch</title>
<g id="a_node5"><a xlink:title="preact&#45;fetch">
<path fill="#ffffcc" stroke="red" d="M153.5,-18C153.5,-18 100.5,-18 100.5,-18 97.5,-18 94.5,-15 94.5,-12 94.5,-12 94.5,-6 94.5,-6 94.5,-3 97.5,0 100.5,0 100.5,0 153.5,0 153.5,0 156.5,0 159.5,-3 159.5,-6 159.5,-6 159.5,-12 159.5,-12 159.5,-15 156.5,-18 153.5,-18"/>
<text text-anchor="middle" x="127" y="-6.8" font-family="Helvetica,sans-Serif" font-size="9.00" fill="red">preact&#45;fetch</text>
</a>
</g>
</g>
<!-- src/components/Boilerplates.jsx -->
<g id="node6" class="node">
<title>src/components/Boilerplates.jsx</title>
<g id="a_node6"><a xlink:href="src/components/Boilerplates.jsx" xlink:title="Boilerplates.jsx">
<path fill="#ffff77" stroke="black" d="M160.5,-460C160.5,-460 93.5,-460 93.5,-460 90.5,-460 87.5,-457 87.5,-454 87.5,-454 87.5,-448 87.5,-448 87.5,-445 90.5,-442 93.5,-442 93.5,-442 160.5,-442 160.5,-442 163.5,-442 166.5,-445 166.5,-448 166.5,-448 166.5,-454 166.5,-454 166.5,-457 163.5,-460 160.5,-460"/>
<text text-anchor="start" x="95.5" y="-448.8" font-family="Helvetica,sans-Serif" font-size="9.00">Boilerplates.jsx</text>
</a>
</g>
</g>
<!-- src/components/Boilerplates.jsx&#45;&gt;csz -->
<g id="edge1" class="edge">
<title>src/components/Boilerplates.jsx&#45;&gt;csz</title>
<path fill="none" stroke="#000000" stroke-width="2" stroke-opacity="0.200000" d="M162.04,-460.12C164.32,-461.77 166.36,-463.71 168,-466 184,-488.31 156.27,-693.9 176,-713 203.94,-740.05 315.57,-729.04 351,-713 366.42,-706.02 378.49,-690.47 385.87,-678.75"/>
<polygon fill="#000000" fill-opacity="0.200000" stroke="#000000" stroke-width="2" stroke-opacity="0.200000" points="387.82,-679.59 389.11,-673.36 384.22,-677.42 387.82,-679.59"/>
</g>
<!-- src/components/Boilerplates.jsx&#45;&gt;preact -->
<g id="edge2" class="edge">
<title>src/components/Boilerplates.jsx&#45;&gt;preact</title>
<path fill="none" stroke="#000000" stroke-width="2" stroke-opacity="0.200000" d="M162,-441.85C164.29,-440.21 166.34,-438.28 168,-436 178.69,-421.35 162.87,-285.5 176,-273 216.24,-234.69 375.59,-249.65 426,-273 439.92,-279.45 450.67,-293.57 457.33,-304.48"/>
<polygon fill="#000000" fill-opacity="0.200000" stroke="#000000" stroke-width="2" stroke-opacity="0.200000" points="455.61,-305.7 460.44,-309.84 459.24,-303.59 455.61,-305.7"/>
</g>
<!-- src/components/Button.jsx -->
<g id="node7" class="node">
<title>src/components/Button.jsx</title>
<g id="a_node7"><a xlink:href="src/components/Button.jsx" xlink:title="Button.jsx">
<path fill="#ffff77" stroke="black" d="M251,-550C251,-550 207,-550 207,-550 204,-550 201,-547 201,-544 201,-544 201,-538 201,-538 201,-535 204,-532 207,-532 207,-532 251,-532 251,-532 254,-532 257,-535 257,-538 257,-538 257,-544 257,-544 257,-547 254,-550 251,-550"/>
<text text-anchor="start" x="209" y="-538.8" font-family="Helvetica,sans-Serif" font-size="9.00">Button.jsx</text>
</a>
</g>
</g>
<!-- src/components/Button.jsx&#45;&gt;csz -->
<g id="edge3" class="edge">
<title>src/components/Button.jsx&#45;&gt;csz</title>
<path fill="none" stroke="#000000" stroke-width="2" stroke-opacity="0.200000" d="M257.15,-542.77C266.36,-544.77 275.86,-548.64 282,-556 304.61,-583.1 267.27,-608.01 290,-635 299.26,-646 334.76,-654.23 361.74,-659.06"/>
<polygon fill="#000000" fill-opacity="0.200000" stroke="#000000" stroke-width="2" stroke-opacity="0.200000" points="361.42,-661.14 367.69,-660.1 362.14,-657 361.42,-661.14"/>
</g>
<!-- src/components/Button.jsx&#45;&gt;preact -->
<g id="edge4" class="edge">
<title>src/components/Button.jsx&#45;&gt;preact</title>
<path fill="none" stroke="#000000" stroke-width="2" stroke-opacity="0.200000" d="M257.11,-537.9C265.88,-535.75 275.12,-532.12 282,-526 288.85,-519.91 283.33,-513.28 290,-507 336.65,-463.04 386.16,-509.22 426,-459 458.79,-417.66 414.21,-387.57 439,-341 440.67,-337.87 442.98,-335 445.55,-332.43"/>
<polygon fill="#000000" fill-opacity="0.200000" stroke="#000000" stroke-width="2" stroke-opacity="0.200000" points="447.26,-333.72 450.35,-328.17 444.47,-330.58 447.26,-333.72"/>
</g>
<!-- src/components/EmbedCode.jsx -->
<g id="node8" class="node">
<title>src/components/EmbedCode.jsx</title>
<g id="a_node8"><a xlink:href="src/components/EmbedCode.jsx" xlink:title="EmbedCode.jsx">
<path fill="#ffff77" stroke="black" d="M162,-430C162,-430 92,-430 92,-430 89,-430 86,-427 86,-424 86,-424 86,-418 86,-418 86,-415 89,-412 92,-412 92,-412 162,-412 162,-412 165,-412 168,-415 168,-418 168,-418 168,-424 168,-424 168,-427 165,-430 162,-430"/>
<text text-anchor="start" x="94" y="-418.8" font-family="Helvetica,sans-Serif" font-size="9.00">EmbedCode.jsx</text>
</a>
</g>
</g>
<!-- src/components/EmbedCode.jsx&#45;&gt;preact -->
<g id="edge5" class="edge">
<title>src/components/EmbedCode.jsx&#45;&gt;preact</title>
<path fill="none" stroke="#000000" stroke-width="2" stroke-opacity="0.200000" d="M162,-411.84C164.29,-410.21 166.34,-408.28 168,-406 178.44,-391.72 163.18,-259.19 176,-247 216.26,-208.72 378.27,-218.57 426,-247 446.67,-259.31 457.05,-286.81 461.72,-304.03"/>
<polygon fill="#000000" fill-opacity="0.200000" stroke="#000000" stroke-width="2" stroke-opacity="0.200000" points="459.69,-304.56 463.19,-309.87 463.76,-303.54 459.69,-304.56"/>
</g>
<!-- src/components/Error.jsx -->
<g id="node9" class="node">
<title>src/components/Error.jsx</title>
<g id="a_node9"><a xlink:href="src/components/Error.jsx" xlink:title="Error.jsx">
<path fill="#ffff77" stroke="black" d="M250,-460C250,-460 208,-460 208,-460 205,-460 202,-457 202,-454 202,-454 202,-448 202,-448 202,-445 205,-442 208,-442 208,-442 250,-442 250,-442 253,-442 256,-445 256,-448 256,-448 256,-454 256,-454 256,-457 253,-460 250,-460"/>
<text text-anchor="start" x="212" y="-448.8" font-family="Helvetica,sans-Serif" font-size="9.00">Error.jsx</text>
</a>
</g>
</g>
<!-- src/components/Error.jsx&#45;&gt;preact -->
<g id="edge6" class="edge">
<title>src/components/Error.jsx&#45;&gt;preact</title>
<path fill="none" stroke="#000000" stroke-width="2" stroke-opacity="0.200000" d="M253.5,-441.89C264.52,-437.75 277.86,-432.92 290,-429 349.73,-409.74 382.03,-435.78 426,-391 442.09,-374.62 426.78,-360.44 439,-341 440.93,-337.93 443.42,-335.08 446.1,-332.5"/>
<polygon fill="#000000" fill-opacity="0.200000" stroke="#000000" stroke-width="2" stroke-opacity="0.200000" points="447.9,-333.72 451.04,-328.19 445.14,-330.55 447.9,-333.72"/>
</g>
<!-- src/components/Footer.jsx -->
<g id="node10" class="node">
<title>src/components/Footer.jsx</title>
<g id="a_node10"><a xlink:href="src/components/Footer.jsx" xlink:title="Footer.jsx">
<path fill="#ffff77" stroke="black" d="M149,-550C149,-550 105,-550 105,-550 102,-550 99,-547 99,-544 99,-544 99,-538 99,-538 99,-535 102,-532 105,-532 105,-532 149,-532 149,-532 152,-532 155,-535 155,-538 155,-538 155,-544 155,-544 155,-547 152,-550 149,-550"/>
<text text-anchor="start" x="107" y="-538.8" font-family="Helvetica,sans-Serif" font-size="9.00">Footer.jsx</text>
</a>
</g>
</g>
<!-- src/components/Footer.jsx&#45;&gt;csz -->
<g id="edge9" class="edge">
<title>src/components/Footer.jsx&#45;&gt;csz</title>
<path fill="none" stroke="#000000" stroke-width="2" stroke-opacity="0.200000" d="M155.04,-546.22C160.09,-548.42 164.79,-551.55 168,-556 181.6,-574.84 159.26,-748.88 176,-765 204.02,-791.97 318.56,-786.45 351,-765 380.08,-745.77 389.56,-702.45 392.6,-679.28"/>
<polygon fill="#000000" fill-opacity="0.200000" stroke="#000000" stroke-width="2" stroke-opacity="0.200000" points="394.72,-679.26 393.32,-673.06 390.54,-678.77 394.72,-679.26"/>
</g>
<!-- src/components/Footer.jsx&#45;&gt;preact -->
<g id="edge10" class="edge">
<title>src/components/Footer.jsx&#45;&gt;preact</title>
<path fill="none" stroke="#000000" stroke-width="2" stroke-opacity="0.200000" d="M155.01,-535.77C160.07,-533.56 164.77,-530.44 168,-526 179.45,-510.26 162.69,-365.2 176,-351 193.3,-332.54 360.69,-323.37 432.53,-320.26"/>
<polygon fill="#000000" fill-opacity="0.200000" stroke="#000000" stroke-width="2" stroke-opacity="0.200000" points="432.86,-322.35 438.76,-319.99 432.68,-318.15 432.86,-322.35"/>
</g>
<!-- src/components/Footer.jsx&#45;&gt;src/components/Error.jsx -->
<g id="edge7" class="edge">
<title>src/components/Footer.jsx&#45;&gt;src/components/Error.jsx</title>
<path fill="none" stroke="#000000" stroke-width="2" stroke-opacity="0.200000" d="M155.13,-535.37C160.06,-533.19 164.67,-530.18 168,-526 184.75,-504.95 158.44,-486.38 176,-466 181.03,-460.16 188.18,-456.52 195.57,-454.28"/>
<polygon fill="#000000" fill-opacity="0.200000" stroke="#000000" stroke-width="2" stroke-opacity="0.200000" points="196.49,-456.21 201.79,-452.7 195.46,-452.14 196.49,-456.21"/>
</g>
<!-- src/components/Loading.jsx -->
<g id="node11" class="node">
<title>src/components/Loading.jsx</title>
<g id="a_node11"><a xlink:href="src/components/Loading.jsx" xlink:title="Loading.jsx">
<path fill="#ffff77" stroke="black" d="M255,-520C255,-520 203,-520 203,-520 200,-520 197,-517 197,-514 197,-514 197,-508 197,-508 197,-505 200,-502 203,-502 203,-502 255,-502 255,-502 258,-502 261,-505 261,-508 261,-508 261,-514 261,-514 261,-517 258,-520 255,-520"/>
<text text-anchor="start" x="205" y="-508.8" font-family="Helvetica,sans-Serif" font-size="9.00">Loading.jsx</text>
</a>
</g>
</g>
<!-- src/components/Footer.jsx&#45;&gt;src/components/Loading.jsx -->
<g id="edge8" class="edge">
<title>src/components/Footer.jsx&#45;&gt;src/components/Loading.jsx</title>
<path fill="none" stroke="#000000" stroke-width="2" stroke-opacity="0.200000" d="M155.13,-532.41C161.93,-530.28 169.23,-528.03 176,-526 180.85,-524.54 185.96,-523.03 191.02,-521.56"/>
<polygon fill="#000000" fill-opacity="0.200000" stroke="#000000" stroke-width="2" stroke-opacity="0.200000" points="191.72,-523.54 196.9,-519.85 190.55,-519.51 191.72,-523.54"/>
</g>
<!-- src/components/Loading.jsx&#45;&gt;csz -->
<g id="edge24" class="edge">
<title>src/components/Loading.jsx&#45;&gt;csz</title>
<path fill="none" stroke="#000000" stroke-width="2" stroke-opacity="0.200000" d="M261.24,-513.76C269.1,-515.96 276.78,-519.71 282,-526 293.84,-540.26 279.16,-593.97 290,-609 307.35,-633.04 324.94,-621.87 351,-636 359.53,-640.62 368.58,-646.38 376.17,-651.47"/>
<polygon fill="#000000" fill-opacity="0.200000" stroke="#000000" stroke-width="2" stroke-opacity="0.200000" points="375.02,-653.23 381.16,-654.86 377.38,-649.75 375.02,-653.23"/>
</g>
<!-- src/components/Loading.jsx&#45;&gt;preact -->
<g id="edge25" class="edge">
<title>src/components/Loading.jsx&#45;&gt;preact</title>
<path fill="none" stroke="#000000" stroke-width="2" stroke-opacity="0.200000" d="M261.11,-506.35C268.53,-504.13 276.01,-500.85 282,-496 287.87,-491.24 284.21,-485.85 290,-481 338.72,-440.23 385.26,-485.74 426,-437 453.61,-403.97 418.3,-378.75 439,-341 440.71,-337.89 443.04,-335.03 445.61,-332.47"/>
<polygon fill="#000000" fill-opacity="0.200000" stroke="#000000" stroke-width="2" stroke-opacity="0.200000" points="447.33,-333.76 450.42,-328.21 444.54,-330.62 447.33,-333.76"/>
</g>
<!-- src/components/Header.jsx -->
<g id="node12" class="node">
<title>src/components/Header.jsx</title>
<g id="a_node12"><a xlink:href="src/components/Header.jsx" xlink:title="Header.jsx">
<path fill="#ffff77" stroke="black" d="M151.5,-490C151.5,-490 102.5,-490 102.5,-490 99.5,-490 96.5,-487 96.5,-484 96.5,-484 96.5,-478 96.5,-478 96.5,-475 99.5,-472 102.5,-472 102.5,-472 151.5,-472 151.5,-472 154.5,-472 157.5,-475 157.5,-478 157.5,-478 157.5,-484 157.5,-484 157.5,-487 154.5,-490 151.5,-490"/>
<text text-anchor="start" x="104.5" y="-478.8" font-family="Helvetica,sans-Serif" font-size="9.00">Header.jsx</text>
</a>
</g>
</g>
<!-- src/components/Header.jsx&#45;&gt;csz -->
<g id="edge12" class="edge">
<title>src/components/Header.jsx&#45;&gt;csz</title>
<path fill="none" stroke="#000000" stroke-width="2" stroke-opacity="0.200000" d="M157.88,-487.56C161.83,-489.64 165.41,-492.38 168,-496 183.75,-517.95 156.59,-720.21 176,-739 203.95,-766.04 317.35,-758.5 351,-739 373.21,-726.13 384.93,-696.99 390.27,-679.06"/>
<polygon fill="#000000" fill-opacity="0.200000" stroke="#000000" stroke-width="2" stroke-opacity="0.200000" points="392.37,-679.35 391.96,-673.01 388.32,-678.23 392.37,-679.35"/>
</g>
<!-- src/components/Header.jsx&#45;&gt;preact -->
<g id="edge13" class="edge">
<title>src/components/Header.jsx&#45;&gt;preact</title>
<path fill="none" stroke="#000000" stroke-width="2" stroke-opacity="0.200000" d="M157.83,-474.41C161.79,-472.33 165.38,-469.6 168,-466 178.94,-450.99 162.55,-311.82 176,-299 216.21,-260.67 372,-285.96 426,-299 432.8,-300.64 439.74,-303.68 445.84,-306.9"/>
<polygon fill="#000000" fill-opacity="0.200000" stroke="#000000" stroke-width="2" stroke-opacity="0.200000" points="444.93,-308.79 451.19,-309.88 446.97,-305.12 444.93,-308.79"/>
</g>
<!-- src/components/Title.jsx -->
<g id="node13" class="node">
<title>src/components/Title.jsx</title>
<g id="a_node13"><a xlink:href="src/components/Title.jsx" xlink:title="Title.jsx">
<path fill="#ffff77" stroke="black" d="M250,-415C250,-415 208,-415 208,-415 205,-415 202,-412 202,-409 202,-409 202,-403 202,-403 202,-400 205,-397 208,-397 208,-397 250,-397 250,-397 253,-397 256,-400 256,-403 256,-403 256,-409 256,-409 256,-412 253,-415 250,-415"/>
<text text-anchor="start" x="213.5" y="-403.8" font-family="Helvetica,sans-Serif" font-size="9.00">Title.jsx</text>
</a>
</g>
</g>
<!-- src/components/Header.jsx&#45;&gt;src/components/Title.jsx -->
<g id="edge11" class="edge">
<title>src/components/Header.jsx&#45;&gt;src/components/Title.jsx</title>
<path fill="none" stroke="#000000" stroke-width="2" stroke-opacity="0.200000" d="M157.59,-473.68C161.48,-471.7 165.11,-469.19 168,-466 177.27,-455.78 167.6,-446.95 176,-436 181.77,-428.47 190.01,-422.51 198.23,-417.94"/>
<polygon fill="#000000" fill-opacity="0.200000" stroke="#000000" stroke-width="2" stroke-opacity="0.200000" points="199.53,-419.63 203.89,-415 197.6,-415.9 199.53,-419.63"/>
</g>
<!-- src/components/Title.jsx&#45;&gt;csz -->
<g id="edge38" class="edge">
<title>src/components/Title.jsx&#45;&gt;csz</title>
<path fill="none" stroke="#000000" stroke-width="2" stroke-opacity="0.200000" d="M256.09,-414.9C265.88,-419.61 276.06,-426.44 282,-436 296.57,-459.45 273.73,-537.69 290,-560 307.17,-583.54 329.35,-564.51 351,-584 360.31,-592.38 358.11,-597.95 364,-609 371.32,-622.73 379.82,-638.29 385.91,-649.35"/>
<polygon fill="#000000" fill-opacity="0.200000" stroke="#000000" stroke-width="2" stroke-opacity="0.200000" points="384.11,-650.45 388.85,-654.69 387.79,-648.42 384.11,-650.45"/>
</g>
<!-- src/components/Title.jsx&#45;&gt;preact -->
<g id="edge39" class="edge">
<title>src/components/Title.jsx&#45;&gt;preact</title>
<path fill="none" stroke="#000000" stroke-width="2" stroke-opacity="0.200000" d="M256.11,-404.36C303.24,-400.93 400.04,-391.53 426,-371 437.4,-361.98 430.34,-352.67 439,-341 441.36,-337.82 444.26,-334.8 447.26,-332.07"/>
<polygon fill="#000000" fill-opacity="0.200000" stroke="#000000" stroke-width="2" stroke-opacity="0.200000" points="448.79,-333.54 452,-328.05 446.07,-330.34 448.79,-333.54"/>
</g>
<!-- src/components/Hero.jsx -->
<g id="node14" class="node">
<title>src/components/Hero.jsx</title>
<g id="a_node14"><a xlink:href="src/components/Hero.jsx" xlink:title="Hero.jsx">
<path fill="#ffff77" stroke="black" d="M148,-580C148,-580 106,-580 106,-580 103,-580 100,-577 100,-574 100,-574 100,-568 100,-568 100,-565 103,-562 106,-562 106,-562 148,-562 148,-562 151,-562 154,-565 154,-568 154,-568 154,-574 154,-574 154,-577 151,-580 148,-580"/>
<text text-anchor="start" x="110" y="-568.8" font-family="Helvetica,sans-Serif" font-size="9.00">Hero.jsx</text>
</a>
</g>
</g>
<!-- src/components/Hero.jsx&#45;&gt;csz -->
<g id="edge16" class="edge">
<title>src/components/Hero.jsx&#45;&gt;csz</title>
<path fill="none" stroke="#000000" stroke-width="2" stroke-opacity="0.200000" d="M128.53,-580.17C130.93,-618.33 142.2,-763.78 176,-791 236.58,-839.78 287.8,-836.33 351,-791 387.25,-765 393.32,-706.76 394.09,-679.12"/>
<polygon fill="#000000" fill-opacity="0.200000" stroke="#000000" stroke-width="2" stroke-opacity="0.200000" points="396.19,-679.12 394.18,-673.09 391.99,-679.06 396.19,-679.12"/>
</g>
<!-- src/components/Hero.jsx&#45;&gt;preact -->
<g id="edge17" class="edge">
<title>src/components/Hero.jsx&#45;&gt;preact</title>
<path fill="none" stroke="#000000" stroke-width="2" stroke-opacity="0.200000" d="M154.18,-566.11C159.55,-563.89 164.59,-560.67 168,-556 178.82,-541.17 164.26,-405.11 176,-391 212.5,-347.11 371.09,-347.6 426,-332 428.19,-331.38 430.44,-330.71 432.7,-330.02"/>
<polygon fill="#000000" fill-opacity="0.200000" stroke="#000000" stroke-width="2" stroke-opacity="0.200000" points="433.58,-331.94 438.67,-328.13 432.31,-327.94 433.58,-331.94"/>
</g>
<!-- src/components/Hero.jsx&#45;&gt;src/components/Button.jsx -->
<g id="edge14" class="edge">
<title>src/components/Hero.jsx&#45;&gt;src/components/Button.jsx</title>
<path fill="none" stroke="#000000" stroke-width="2" stroke-opacity="0.200000" d="M154.13,-562.72C161.21,-560.51 168.89,-558.14 176,-556 182.2,-554.14 188.83,-552.19 195.21,-550.34"/>
<polygon fill="#000000" fill-opacity="0.200000" stroke="#000000" stroke-width="2" stroke-opacity="0.200000" points="195.8,-552.36 200.98,-548.67 194.63,-548.32 195.8,-552.36"/>
</g>
<!-- src/components/Link.jsx -->
<g id="node15" class="node">
<title>src/components/Link.jsx</title>
<g id="a_node15"><a xlink:href="src/components/Link.jsx" xlink:title="Link.jsx">
<path fill="#ffff77" stroke="black" d="M250,-580C250,-580 208,-580 208,-580 205,-580 202,-577 202,-574 202,-574 202,-568 202,-568 202,-565 205,-562 208,-562 208,-562 250,-562 250,-562 253,-562 256,-565 256,-568 256,-568 256,-574 256,-574 256,-577 253,-580 250,-580"/>
<text text-anchor="start" x="213.5" y="-568.8" font-family="Helvetica,sans-Serif" font-size="9.00">Link.jsx</text>
</a>
</g>
</g>
<!-- src/components/Hero.jsx&#45;&gt;src/components/Link.jsx -->
<g id="edge15" class="edge">
<title>src/components/Hero.jsx&#45;&gt;src/components/Link.jsx</title>
<path fill="none" stroke="#000000" stroke-width="2" stroke-opacity="0.200000" d="M154.01,-571C166.76,-571 182.23,-571 195.73,-571"/>
<polygon fill="#000000" fill-opacity="0.200000" stroke="#000000" stroke-width="2" stroke-opacity="0.200000" points="195.77,-573.1 201.77,-571 195.77,-568.9 195.77,-573.1"/>
</g>
<!-- src/components/Link.jsx&#45;&gt;csz -->
<g id="edge22" class="edge">
<title>src/components/Link.jsx&#45;&gt;csz</title>
<path fill="none" stroke="#000000" stroke-width="2" stroke-opacity="0.200000" d="M232.94,-580.28C239.55,-599.44 257.64,-643.08 290,-661 311.72,-673.03 340.09,-673.01 361.71,-670.41"/>
<polygon fill="#000000" fill-opacity="0.200000" stroke="#000000" stroke-width="2" stroke-opacity="0.200000" points="362.24,-672.45 367.91,-669.57 361.68,-668.29 362.24,-672.45"/>
</g>
<!-- src/components/Link.jsx&#45;&gt;preact -->
<g id="edge23" class="edge">
<title>src/components/Link.jsx&#45;&gt;preact</title>
<path fill="none" stroke="#000000" stroke-width="2" stroke-opacity="0.200000" d="M256.12,-568.6C265.33,-566.54 275.1,-562.78 282,-556 290.62,-547.53 281.63,-538.72 290,-530 334.39,-483.76 386.61,-532.57 426,-482 445.34,-457.18 424.46,-368.91 439,-341 440.64,-337.85 442.94,-334.97 445.5,-332.41"/>
<polygon fill="#000000" fill-opacity="0.200000" stroke="#000000" stroke-width="2" stroke-opacity="0.200000" points="447.21,-333.7 450.3,-328.14 444.42,-330.56 447.21,-333.7"/>
</g>
<!-- src/components/Item.jsx -->
<g id="node16" class="node">
<title>src/components/Item.jsx</title>
<g id="a_node16"><a xlink:href="src/components/Item.jsx" xlink:title="Item.jsx">
<path fill="#ffff77" stroke="black" d="M487,-580C487,-580 445,-580 445,-580 442,-580 439,-577 439,-574 439,-574 439,-568 439,-568 439,-565 442,-562 445,-562 445,-562 487,-562 487,-562 490,-562 493,-565 493,-568 493,-568 493,-574 493,-574 493,-577 490,-580 487,-580"/>
<text text-anchor="start" x="450.5" y="-568.8" font-family="Helvetica,sans-Serif" font-size="9.00">Item.jsx</text>
</a>
</g>
</g>
<!-- src/components/Item.jsx&#45;&gt;csz -->
<g id="edge18" class="edge">
<title>src/components/Item.jsx&#45;&gt;csz</title>
<path fill="none" stroke="#000000" stroke-width="2" stroke-opacity="0.200000" d="M458.16,-580.22C446.09,-596.49 420.94,-630.39 406.6,-649.71"/>
<polygon fill="#000000" fill-opacity="0.200000" stroke="#000000" stroke-width="2" stroke-opacity="0.200000" points="404.76,-648.67 402.87,-654.74 408.13,-651.18 404.76,-648.67"/>
</g>
<!-- src/components/Item.jsx&#45;&gt;preact -->
<g id="edge19" class="edge">
<title>src/components/Item.jsx&#45;&gt;preact</title>
<path fill="none" stroke="#000000" stroke-width="2" stroke-opacity="0.200000" d="M466,-562C466,-486.24 466,-410.49 466,-334.74"/>
<polygon fill="#000000" fill-opacity="0.200000" stroke="#000000" stroke-width="2" stroke-opacity="0.200000" points="468.1,-334.35 466,-328.35 463.9,-334.35 468.1,-334.35"/>
</g>
<!-- src/components/ItemList.jsx -->
<g id="node17" class="node">
<title>src/components/ItemList.jsx</title>
<g id="a_node17"><a xlink:href="src/components/ItemList.jsx" xlink:title="ItemList.jsx">
<path fill="#ffff77" stroke="black" d="M420,-580C420,-580 370,-580 370,-580 367,-580 364,-577 364,-574 364,-574 364,-568 364,-568 364,-565 367,-562 370,-562 370,-562 420,-562 420,-562 423,-562 426,-565 426,-568 426,-568 426,-574 426,-574 426,-577 423,-580 420,-580"/>
<text text-anchor="start" x="372" y="-568.8" font-family="Helvetica,sans-Serif" font-size="9.00">ItemList.jsx</text>
</a>
</g>
</g>
<!-- src/components/ItemList.jsx&#45;&gt;preact -->
<g id="edge21" class="edge">
<title>src/components/ItemList.jsx&#45;&gt;preact</title>
<path fill="none" stroke="#000000" stroke-width="2" stroke-opacity="0.200000" d="M417.31,-561.85C420.73,-559.45 423.86,-556.53 426,-553 450.5,-512.66 417.84,-383.19 439,-341 440.59,-337.83 442.86,-334.94 445.41,-332.36"/>
<polygon fill="#000000" fill-opacity="0.200000" stroke="#000000" stroke-width="2" stroke-opacity="0.200000" points="447.12,-333.65 450.21,-328.09 444.33,-330.51 447.12,-333.65"/>
</g>
<!-- src/components/ItemList.jsx&#45;&gt;src/components/Item.jsx -->
<g id="edge20" class="edge">
<title>src/components/ItemList.jsx&#45;&gt;src/components/Item.jsx</title>
<path fill="none" stroke="#000000" stroke-width="2" stroke-opacity="0.200000" d="M426.06,-571C428.17,-571 430.3,-571 432.42,-571"/>
<polygon fill="#000000" fill-opacity="0.200000" stroke="#000000" stroke-width="2" stroke-opacity="0.200000" points="432.71,-573.1 438.71,-571 432.71,-568.9 432.71,-573.1"/>
</g>
<!-- src/components/Manifesto.jsx -->
<g id="node18" class="node">
<title>src/components/Manifesto.jsx</title>
<g id="a_node18"><a xlink:href="src/components/Manifesto.jsx" xlink:title="Manifesto.jsx">
<path fill="#ffff77" stroke="black" d="M156,-370C156,-370 98,-370 98,-370 95,-370 92,-367 92,-364 92,-364 92,-358 92,-358 92,-355 95,-352 98,-352 98,-352 156,-352 156,-352 159,-352 162,-355 162,-358 162,-358 162,-364 162,-364 162,-367 159,-370 156,-370"/>
<text text-anchor="start" x="100" y="-358.8" font-family="Helvetica,sans-Serif" font-size="9.00">Manifesto.jsx</text>
</a>
</g>
</g>
<!-- src/components/Manifesto.jsx&#45;&gt;csz -->
<g id="edge26" class="edge">
<title>src/components/Manifesto.jsx&#45;&gt;csz</title>
<path fill="none" stroke="#000000" stroke-width="2" stroke-opacity="0.200000" d="M162.03,-370.13C164.31,-371.78 166.35,-373.71 168,-376 181.66,-394.94 165.42,-565.18 176,-586 205.25,-643.55 229.02,-654.83 290,-676 313.44,-684.14 341.46,-680.18 362.5,-674.72"/>
<polygon fill="#000000" fill-opacity="0.200000" stroke="#000000" stroke-width="2" stroke-opacity="0.200000" points="363.29,-676.68 368.52,-673.07 362.18,-672.63 363.29,-676.68"/>
</g>
<!-- src/components/Manifesto.jsx&#45;&gt;preact -->
<g id="edge27" class="edge">
<title>src/components/Manifesto.jsx&#45;&gt;preact</title>
<path fill="none" stroke="#000000" stroke-width="2" stroke-opacity="0.200000" d="M128.03,-351.95C128.39,-307.37 132.47,-111.83 176,-75 211.96,-44.57 237.7,-58.96 282,-75 360.33,-103.36 379.62,-125.79 426,-195 449.3,-229.76 459.31,-279.22 463.05,-303.85"/>
<polygon fill="#000000" fill-opacity="0.200000" stroke="#000000" stroke-width="2" stroke-opacity="0.200000" points="460.98,-304.19 463.91,-309.83 465.14,-303.59 460.98,-304.19"/>
</g>
<!-- src/components/Section.jsx -->
<g id="node19" class="node">
<title>src/components/Section.jsx</title>
<g id="a_node19"><a xlink:href="src/components/Section.jsx" xlink:title="Section.jsx">
<path fill="#ffff77" stroke="black" d="M345,-554C345,-554 296,-554 296,-554 293,-554 290,-551 290,-548 290,-548 290,-542 290,-542 290,-539 293,-536 296,-536 296,-536 345,-536 345,-536 348,-536 351,-539 351,-542 351,-542 351,-548 351,-548 351,-551 348,-554 345,-554"/>
<text text-anchor="start" x="298" y="-542.8" font-family="Helvetica,sans-Serif" font-size="9.00">Section.jsx</text>
</a>
</g>
</g>
<!-- src/components/Section.jsx&#45;&gt;csz -->
<g id="edge29" class="edge">
<title>src/components/Section.jsx&#45;&gt;csz</title>
<path fill="none" stroke="#000000" stroke-width="2" stroke-opacity="0.200000" d="M341.26,-554.2C344.91,-556.63 348.39,-559.56 351,-563 363.84,-579.92 355.97,-589.33 364,-609 369.88,-623.41 378.56,-638.89 385.07,-649.74"/>
<polygon fill="#000000" fill-opacity="0.200000" stroke="#000000" stroke-width="2" stroke-opacity="0.200000" points="383.34,-650.94 388.25,-654.97 386.92,-648.75 383.34,-650.94"/>
</g>
<!-- src/components/Section.jsx&#45;&gt;preact -->
<g id="edge30" class="edge">
<title>src/components/Section.jsx&#45;&gt;preact</title>
<path fill="none" stroke="#000000" stroke-width="2" stroke-opacity="0.200000" d="M351.37,-548.86C375.22,-550.11 407.61,-547.35 426,-527 453.79,-496.26 420.27,-377.96 439,-341 440.6,-337.84 442.88,-334.95 445.44,-332.38"/>
<polygon fill="#000000" fill-opacity="0.200000" stroke="#000000" stroke-width="2" stroke-opacity="0.200000" points="447.15,-333.66 450.23,-328.11 444.36,-330.53 447.15,-333.66"/>
</g>
<!-- src/components/Section.jsx&#45;&gt;src/components/ItemList.jsx -->
<g id="edge28" class="edge">
<title>src/components/Section.jsx&#45;&gt;src/components/ItemList.jsx</title>
<path fill="none" stroke="#000000" stroke-width="2" stroke-opacity="0.200000" d="M346.86,-554.09C352.01,-555.94 357.5,-557.91 362.83,-559.82"/>
<polygon fill="#000000" fill-opacity="0.200000" stroke="#000000" stroke-width="2" stroke-opacity="0.200000" points="362.18,-561.82 368.53,-561.87 363.6,-557.87 362.18,-561.82"/>
</g>
<!-- src/components/SectionList.jsx -->
<g id="node20" class="node">
<title>src/components/SectionList.jsx</title>
<g id="a_node20"><a xlink:href="src/components/SectionList.jsx" xlink:title="SectionList.jsx">
<path fill="#ffff77" stroke="black" d="M260.5,-490C260.5,-490 197.5,-490 197.5,-490 194.5,-490 191.5,-487 191.5,-484 191.5,-484 191.5,-478 191.5,-478 191.5,-475 194.5,-472 197.5,-472 197.5,-472 260.5,-472 260.5,-472 263.5,-472 266.5,-475 266.5,-478 266.5,-478 266.5,-484 266.5,-484 266.5,-487 263.5,-490 260.5,-490"/>
<text text-anchor="start" x="199.5" y="-478.8" font-family="Helvetica,sans-Serif" font-size="9.00">SectionList.jsx</text>
</a>
</g>
</g>
<!-- src/components/SectionList.jsx&#45;&gt;csz -->
<g id="edge32" class="edge">
<title>src/components/SectionList.jsx&#45;&gt;csz</title>
<path fill="none" stroke="#000000" stroke-width="2" stroke-opacity="0.200000" d="M266.62,-485.52C272.52,-487.81 277.99,-491.15 282,-496 294.37,-510.96 278.67,-567.23 290,-583 307.3,-607.08 327.53,-591.88 351,-610 365.31,-621.05 377.69,-637.84 385.44,-649.75"/>
<polygon fill="#000000" fill-opacity="0.200000" stroke="#000000" stroke-width="2" stroke-opacity="0.200000" points="383.69,-650.9 388.67,-654.85 387.24,-648.66 383.69,-650.9"/>
</g>
<!-- src/components/SectionList.jsx&#45;&gt;preact -->
<g id="edge33" class="edge">
<title>src/components/SectionList.jsx&#45;&gt;preact</title>
<path fill="none" stroke="#000000" stroke-width="2" stroke-opacity="0.200000" d="M266.65,-473.78C272.08,-471.78 277.38,-469.24 282,-466 286.95,-462.53 285.06,-458.48 290,-455 341.5,-418.7 384.02,-461.98 426,-415 448.25,-390.1 422.37,-369.96 439,-341 440.8,-337.86 443.23,-334.96 445.88,-332.37"/>
<polygon fill="#000000" fill-opacity="0.200000" stroke="#000000" stroke-width="2" stroke-opacity="0.200000" points="447.68,-333.59 450.81,-328.05 444.91,-330.43 447.68,-333.59"/>
</g>
<!-- src/components/SectionList.jsx&#45;&gt;src/components/Section.jsx -->
<g id="edge31" class="edge">
<title>src/components/SectionList.jsx&#45;&gt;src/components/Section.jsx</title>
<path fill="none" stroke="#000000" stroke-width="2" stroke-opacity="0.200000" d="M266.58,-488.32C272.02,-490.31 277.34,-492.82 282,-496 294.96,-504.85 305.36,-519.61 311.9,-530.63"/>
<polygon fill="#000000" fill-opacity="0.200000" stroke="#000000" stroke-width="2" stroke-opacity="0.200000" points="310.16,-531.82 314.95,-535.99 313.81,-529.74 310.16,-531.82"/>
</g>
<!-- src/components/Sections.jsx -->
<g id="node21" class="node">
<title>src/components/Sections.jsx</title>
<g id="a_node21"><a xlink:href="src/components/Sections.jsx" xlink:title="Sections.jsx">
<path fill="#ffff77" stroke="black" d="M153.5,-520C153.5,-520 100.5,-520 100.5,-520 97.5,-520 94.5,-517 94.5,-514 94.5,-514 94.5,-508 94.5,-508 94.5,-505 97.5,-502 100.5,-502 100.5,-502 153.5,-502 153.5,-502 156.5,-502 159.5,-505 159.5,-508 159.5,-508 159.5,-514 159.5,-514 159.5,-517 156.5,-520 153.5,-520"/>
<text text-anchor="start" x="102.5" y="-508.8" font-family="Helvetica,sans-Serif" font-size="9.00">Sections.jsx</text>
</a>
</g>
</g>
<!-- src/components/Sections.jsx&#45;&gt;preact -->
<g id="edge37" class="edge">
<title>src/components/Sections.jsx&#45;&gt;preact</title>
<path fill="none" stroke="#000000" stroke-width="2" stroke-opacity="0.200000" d="M159.78,-503.32C162.96,-501.4 165.82,-499 168,-496 179.2,-480.62 162.38,-338.27 176,-325 211.52,-290.39 364.42,-305.64 432.31,-314.4"/>
<polygon fill="#000000" fill-opacity="0.200000" stroke="#000000" stroke-width="2" stroke-opacity="0.200000" points="432.39,-316.52 438.61,-315.22 432.93,-312.36 432.39,-316.52"/>
</g>
<!-- src/components/Sections.jsx&#45;&gt;src/components/Error.jsx -->
<g id="edge34" class="edge">
<title>src/components/Sections.jsx&#45;&gt;src/components/Error.jsx</title>
<path fill="none" stroke="#000000" stroke-width="2" stroke-opacity="0.200000" d="M159.57,-502.61C162.71,-500.81 165.61,-498.64 168,-496 177.27,-485.78 166.34,-475.86 176,-466 181.29,-460.6 188.39,-457.11 195.65,-454.87"/>
<polygon fill="#000000" fill-opacity="0.200000" stroke="#000000" stroke-width="2" stroke-opacity="0.200000" points="196.47,-456.82 201.74,-453.26 195.4,-452.76 196.47,-456.82"/>
</g>
<!-- src/components/Sections.jsx&#45;&gt;src/components/Loading.jsx -->
<g id="edge35" class="edge">
<title>src/components/Sections.jsx&#45;&gt;src/components/Loading.jsx</title>
<path fill="none" stroke="#000000" stroke-width="2" stroke-opacity="0.200000" d="M159.64,-511C169.5,-511 180.46,-511 190.67,-511"/>
<polygon fill="#000000" fill-opacity="0.200000" stroke="#000000" stroke-width="2" stroke-opacity="0.200000" points="190.91,-513.1 196.91,-511 190.91,-508.9 190.91,-513.1"/>
</g>
<!-- src/components/Sections.jsx&#45;&gt;src/components/SectionList.jsx -->
<g id="edge36" class="edge">
<title>src/components/Sections.jsx&#45;&gt;src/components/SectionList.jsx</title>
<path fill="none" stroke="#000000" stroke-width="2" stroke-opacity="0.200000" d="M156.65,-501.93C163.01,-499.95 169.73,-497.88 176,-496 180.62,-494.61 185.48,-493.18 190.29,-491.77"/>
<polygon fill="#000000" fill-opacity="0.200000" stroke="#000000" stroke-width="2" stroke-opacity="0.200000" points="191.17,-493.7 196.34,-490.01 190,-489.67 191.17,-493.7"/>
</g>
<!-- src/components/Title.test.jsx -->
<g id="node22" class="node">
<title>src/components/Title.test.jsx</title>
<g id="a_node22"><a xlink:href="src/components/Title.test.jsx" xlink:title="Title.test.jsx">
<path fill="#ffff77" stroke="black" d="M152.5,-400C152.5,-400 101.5,-400 101.5,-400 98.5,-400 95.5,-397 95.5,-394 95.5,-394 95.5,-388 95.5,-388 95.5,-385 98.5,-382 101.5,-382 101.5,-382 152.5,-382 152.5,-382 155.5,-382 158.5,-385 158.5,-388 158.5,-388 158.5,-394 158.5,-394 158.5,-397 155.5,-400 152.5,-400"/>
<text text-anchor="start" x="103.5" y="-388.8" font-family="Helvetica,sans-Serif" font-size="9.00">Title.test.jsx</text>
</a>
</g>
</g>
<!-- src/components/Title.test.jsx&#45;&gt;@testing&#45;library/jest&#45;dom/extend&#45;expect -->
<g id="edge41" class="edge">
<title>src/components/Title.test.jsx&#45;&gt;@testing&#45;library/jest&#45;dom/extend&#45;expect</title>
<path fill="none" stroke="#000000" stroke-width="2" stroke-opacity="0.200000" d="M158.63,-383.99C162.27,-381.97 165.56,-379.36 168,-376 179.83,-359.71 168.99,-213.87 176,-195 183.78,-174.05 200.87,-154.54 213.34,-142.25"/>
<polygon fill="#000000" fill-opacity="0.200000" stroke="#000000" stroke-width="2" stroke-opacity="0.200000" points="214.83,-143.73 217.7,-138.06 211.92,-140.7 214.83,-143.73"/>
</g>
<!-- src/components/Title.test.jsx&#45;&gt;@testing&#45;library/preact -->
<g id="edge42" class="edge">
<title>src/components/Title.test.jsx&#45;&gt;@testing&#45;library/preact</title>
<path fill="none" stroke="#000000" stroke-width="2" stroke-opacity="0.200000" d="M158.67,-384.02C162.31,-382 165.58,-379.38 168,-376 185.27,-351.86 157.6,-132.28 176,-109 180.94,-102.75 188.36,-99.11 196.06,-97.03"/>
<polygon fill="#000000" fill-opacity="0.200000" stroke="#000000" stroke-width="2" stroke-opacity="0.200000" points="196.55,-99.07 201.96,-95.73 195.65,-94.97 196.55,-99.07"/>
</g>
<!-- src/components/Title.test.jsx&#45;&gt;preact -->
<g id="edge43" class="edge">
<title>src/components/Title.test.jsx&#45;&gt;preact</title>
<path fill="none" stroke="#000000" stroke-width="2" stroke-opacity="0.200000" d="M158.6,-383.98C162.25,-381.95 165.55,-379.35 168,-376 178.18,-362.08 163.5,-232.88 176,-221 256.57,-144.48 334.05,-158.63 426,-221 453.59,-239.71 461.66,-281.36 464.02,-303.87"/>
<polygon fill="#000000" fill-opacity="0.200000" stroke="#000000" stroke-width="2" stroke-opacity="0.200000" points="461.94,-304.15 464.57,-309.93 466.12,-303.77 461.94,-304.15"/>
</g>
<!-- src/components/Title.test.jsx&#45;&gt;src/components/Title.jsx -->
<g id="edge40" class="edge">
<title>src/components/Title.test.jsx&#45;&gt;src/components/Title.jsx</title>
<path fill="none" stroke="#000000" stroke-width="2" stroke-opacity="0.200000" d="M158.55,-395.58C170.29,-397.34 183.72,-399.36 195.62,-401.14"/>
<polygon fill="#000000" fill-opacity="0.200000" stroke="#000000" stroke-width="2" stroke-opacity="0.200000" points="195.45,-403.24 201.69,-402.05 196.07,-399.09 195.45,-403.24"/>
</g>
<!-- src/index.jsx -->
<g id="node23" class="node">
<title>src/index.jsx</title>
<g id="a_node23"><a xlink:href="src/index.jsx" xlink:title="index.jsx">
<path fill="#ffff77" stroke="black" d="M64,-460C64,-460 22,-460 22,-460 19,-460 16,-457 16,-454 16,-454 16,-448 16,-448 16,-445 19,-442 22,-442 22,-442 64,-442 64,-442 67,-442 70,-445 70,-448 70,-448 70,-454 70,-454 70,-457 67,-460 64,-460"/>
<text text-anchor="start" x="24.5" y="-448.8" font-family="Helvetica,sans-Serif" font-size="9.00">index.jsx</text>
</a>
</g>
</g>
<!-- src/index.jsx&#45;&gt;preact -->
<g id="edge51" class="edge">
<title>src/index.jsx&#45;&gt;preact</title>
<path fill="none" stroke="#000000" stroke-width="2" stroke-opacity="0.200000" d="M43.76,-441.97C42.64,-381.42 44.34,-37 228,-37 228,-37 228,-37 321.5,-37 379.46,-37 395.25,-65.87 426,-115 464.54,-176.58 466.57,-267.57 465.69,-303.55"/>
<polygon fill="#000000" fill-opacity="0.200000" stroke="#000000" stroke-width="2" stroke-opacity="0.200000" points="463.59,-303.55 465.5,-309.61 467.79,-303.68 463.59,-303.55"/>
</g>
<!-- src/index.jsx&#45;&gt;preact&#45;fetch -->
<g id="edge52" class="edge">
<title>src/index.jsx&#45;&gt;preact&#45;fetch</title>
<path fill="none" stroke="#000000" stroke-width="2" stroke-opacity="0.200000" d="M44.15,-441.8C45.21,-383.02 52.16,-61.27 78,-27 80.86,-23.2 84.62,-20.21 88.78,-17.84"/>
<polygon fill="#000000" fill-opacity="0.200000" stroke="#000000" stroke-width="2" stroke-opacity="0.200000" points="89.76,-19.7 94.22,-15.17 87.91,-15.93 89.76,-19.7"/>
</g>
<!-- src/index.jsx&#45;&gt;src/components/Boilerplates.jsx -->
<g id="edge44" class="edge">
<title>src/index.jsx&#45;&gt;src/components/Boilerplates.jsx</title>
<path fill="none" stroke="#000000" stroke-width="2" stroke-opacity="0.200000" d="M70.4,-451C73.88,-451 77.52,-451 81.2,-451"/>
<polygon fill="#000000" fill-opacity="0.200000" stroke="#000000" stroke-width="2" stroke-opacity="0.200000" points="81.41,-453.1 87.41,-451 81.41,-448.9 81.41,-453.1"/>
</g>
<!-- src/index.jsx&#45;&gt;src/components/EmbedCode.jsx -->
<g id="edge45" class="edge">
<title>src/index.jsx&#45;&gt;src/components/EmbedCode.jsx</title>
<path fill="none" stroke="#000000" stroke-width="2" stroke-opacity="0.200000" d="M63.62,-441.89C68.29,-439.85 73.29,-437.77 78,-436 81.73,-434.6 85.66,-433.22 89.6,-431.9"/>
<polygon fill="#000000" fill-opacity="0.200000" stroke="#000000" stroke-width="2" stroke-opacity="0.200000" points="90.31,-433.88 95.35,-430.01 89,-429.89 90.31,-433.88"/>
</g>
<!-- src/index.jsx&#45;&gt;src/components/Footer.jsx -->
<g id="edge46" class="edge">
<title>src/index.jsx&#45;&gt;src/components/Footer.jsx</title>
<path fill="none" stroke="#000000" stroke-width="2" stroke-opacity="0.200000" d="M45.66,-460.3C48.97,-476.09 57.87,-508.2 78,-526 82.23,-529.74 87.38,-532.54 92.72,-534.65"/>
<polygon fill="#000000" fill-opacity="0.200000" stroke="#000000" stroke-width="2" stroke-opacity="0.200000" points="92.2,-536.69 98.55,-536.67 93.57,-532.72 92.2,-536.69"/>
</g>
<!-- src/index.jsx&#45;&gt;src/components/Header.jsx -->
<g id="edge47" class="edge">
<title>src/index.jsx&#45;&gt;src/components/Header.jsx</title>
<path fill="none" stroke="#000000" stroke-width="2" stroke-opacity="0.200000" d="M63.62,-460.11C68.29,-462.15 73.29,-464.23 78,-466 82.05,-467.52 86.32,-469.01 90.59,-470.43"/>
<polygon fill="#000000" fill-opacity="0.200000" stroke="#000000" stroke-width="2" stroke-opacity="0.200000" points="90.02,-472.45 96.38,-472.32 91.32,-468.46 90.02,-472.45"/>
</g>
<!-- src/index.jsx&#45;&gt;src/components/Hero.jsx -->
<g id="edge48" class="edge">
<title>src/index.jsx&#45;&gt;src/components/Hero.jsx</title>
<path fill="none" stroke="#000000" stroke-width="2" stroke-opacity="0.200000" d="M44.26,-460.01C45.33,-480.12 50.76,-529.04 78,-556 82.37,-560.33 87.98,-563.41 93.81,-565.61"/>
<polygon fill="#000000" fill-opacity="0.200000" stroke="#000000" stroke-width="2" stroke-opacity="0.200000" points="93.31,-567.65 99.67,-567.52 94.62,-563.66 93.31,-567.65"/>
</g>
<!-- src/index.jsx&#45;&gt;src/components/Manifesto.jsx -->
<g id="edge49" class="edge">
<title>src/index.jsx&#45;&gt;src/components/Manifesto.jsx</title>
<path fill="none" stroke="#000000" stroke-width="2" stroke-opacity="0.200000" d="M45.66,-441.7C48.97,-425.91 57.87,-393.8 78,-376 80.45,-373.83 83.22,-371.98 86.15,-370.39"/>
<polygon fill="#000000" fill-opacity="0.200000" stroke="#000000" stroke-width="2" stroke-opacity="0.200000" points="87.06,-372.28 91.58,-367.81 85.25,-368.49 87.06,-372.28"/>
</g>
<!-- src/index.jsx&#45;&gt;src/components/Sections.jsx -->
<g id="edge50" class="edge">
<title>src/index.jsx&#45;&gt;src/components/Sections.jsx</title>
<path fill="none" stroke="#000000" stroke-width="2" stroke-opacity="0.200000" d="M48.72,-460.31C54.36,-470.5 64.71,-486.64 78,-496 81.31,-498.33 85,-500.31 88.81,-501.98"/>
<polygon fill="#000000" fill-opacity="0.200000" stroke="#000000" stroke-width="2" stroke-opacity="0.200000" points="88.12,-503.97 94.47,-504.23 89.67,-500.06 88.12,-503.97"/>
</g>
</g>
</svg>
