<?xml version="1.0" encoding="UTF-8" standalone="no"?>
<!DOCTYPE svg PUBLIC "-//W3C//DTD SVG 1.1//EN"
 "http://www.w3.org/Graphics/SVG/1.1/DTD/svg11.dtd">
<!-- Generated by graphviz version 2.44.1 (20200629.0846)
 -->
<!-- Title: dependency&#45;cruiser output Pages: 1 -->
<svg width="525pt" height="828pt"
 viewBox="0.00 0.00 525.00 827.76" xmlns="http://www.w3.org/2000/svg" xmlns:xlink="http://www.w3.org/1999/xlink">
<g id="graph0" class="graph" transform="scale(1 1) rotate(0) translate(4 823.76)">
<title>dependency&#45;cruiser output</title>
<polygon fill="white" stroke="transparent" points="-4,4 -4,-823.76 521,-823.76 521,4 -4,4"/>
<g id="clust1" class="cluster">
<title>cluster_@testing&#45;library</title>
<path fill="#ffffff" stroke="black" stroke-width="2" d="M188,-594C188,-594 270,-594 270,-594 276,-594 282,-600 282,-606 282,-606 282,-694 282,-694 282,-700 276,-706 270,-706 270,-706 188,-706 188,-706 182,-706 176,-700 176,-694 176,-694 176,-606 176,-606 176,-600 182,-594 188,-594"/>
<text text-anchor="middle" x="229" y="-694.8" font-family="Helvetica,sans-Serif" font-weight="bold" font-size="9.00">@testing&#45;library</text>
</g>
<g id="clust2" class="cluster">
<title>cluster_@testing&#45;library/jest&#45;dom</title>
<path fill="#ffffff" stroke="black" stroke-width="2" d="M196,-628C196,-628 262,-628 262,-628 268,-628 274,-634 274,-640 274,-640 274,-668 274,-668 274,-674 268,-680 262,-680 262,-680 196,-680 196,-680 190,-680 184,-674 184,-668 184,-668 184,-640 184,-640 184,-634 190,-628 196,-628"/>
<text text-anchor="middle" x="229" y="-668.8" font-family="Helvetica,sans-Serif" font-weight="bold" font-size="9.00">jest&#45;dom</text>
</g>
<g id="clust3" class="cluster">
<title>cluster_src</title>
<path fill="#ffffff" stroke="black" stroke-width="2" d="M20,-290C20,-290 497,-290 497,-290 503,-290 509,-296 509,-302 509,-302 509,-574 509,-574 509,-580 503,-586 497,-586 497,-586 20,-586 20,-586 14,-586 8,-580 8,-574 8,-574 8,-302 8,-302 8,-296 14,-290 20,-290"/>
<text text-anchor="middle" x="258.5" y="-574.8" font-family="Helvetica,sans-Serif" font-weight="bold" font-size="9.00">src</text>
</g>
<g id="clust4" class="cluster">
<title>cluster_src/components</title>
<path fill="#ffffff" stroke="black" stroke-width="2" d="M90,-298C90,-298 489,-298 489,-298 495,-298 501,-304 501,-310 501,-310 501,-548 501,-548 501,-554 495,-560 489,-560 489,-560 90,-560 90,-560 84,-560 78,-554 78,-548 78,-548 78,-310 78,-310 78,-304 84,-298 90,-298"/>
<text text-anchor="middle" x="289.5" y="-548.8" font-family="Helvetica,sans-Serif" font-weight="bold" font-size="9.00">components</text>
</g>
<!-- @testing&#45;library/jest&#45;dom/extend&#45;expect -->
<g id="node1" class="node">
<title>@testing&#45;library/jest&#45;dom/extend&#45;expect</title>
<path fill="#ffffcc" stroke="red" d="M260,-654C260,-654 198,-654 198,-654 195,-654 192,-651 192,-648 192,-648 192,-642 192,-642 192,-639 195,-636 198,-636 198,-636 260,-636 260,-636 263,-636 266,-639 266,-642 266,-642 266,-648 266,-648 266,-651 263,-654 260,-654"/>
<text text-anchor="middle" x="229" y="-642.8" font-family="Helvetica,sans-Serif" font-size="9.00" fill="red">extend&#45;expect</text>
</g>
<!-- @testing&#45;library/preact -->
<g id="node2" class="node">
<title>@testing&#45;library/preact</title>
<path fill="#ffffcc" stroke="red" d="M250,-620C250,-620 208,-620 208,-620 205,-620 202,-617 202,-614 202,-614 202,-608 202,-608 202,-605 205,-602 208,-602 208,-602 250,-602 250,-602 253,-602 256,-605 256,-608 256,-608 256,-614 256,-614 256,-617 253,-620 250,-620"/>
<text text-anchor="middle" x="229" y="-608.8" font-family="Helvetica,sans-Serif" font-size="9.00" fill="red">preact</text>
</g>
<!-- csz -->
<g id="node3" class="node">
<title>csz</title>
<path fill="#ffffcc" stroke="red" d="M416,-612C416,-612 374,-612 374,-612 371,-612 368,-609 368,-606 368,-606 368,-600 368,-600 368,-597 371,-594 374,-594 374,-594 416,-594 416,-594 419,-594 422,-597 422,-600 422,-600 422,-606 422,-606 422,-609 419,-612 416,-612"/>
<text text-anchor="middle" x="395" y="-600.8" font-family="Helvetica,sans-Serif" font-size="9.00" fill="red">csz</text>
</g>
<!-- preact -->
<g id="node4" class="node">
<title>preact</title>
<path fill="#ffffcc" stroke="red" d="M487,-268C487,-268 445,-268 445,-268 442,-268 439,-265 439,-262 439,-262 439,-256 439,-256 439,-253 442,-250 445,-250 445,-250 487,-250 487,-250 490,-250 493,-253 493,-256 493,-256 493,-262 493,-262 493,-265 490,-268 487,-268"/>
<text text-anchor="middle" x="466" y="-256.8" font-family="Helvetica,sans-Serif" font-size="9.00" fill="red">preact</text>
</g>
<!-- preact&#45;fetch -->
<g id="node5" class="node">
<title>preact&#45;fetch</title>
<path fill="#ffffcc" stroke="red" d="M153.5,-18C153.5,-18 100.5,-18 100.5,-18 97.5,-18 94.5,-15 94.5,-12 94.5,-12 94.5,-6 94.5,-6 94.5,-3 97.5,0 100.5,0 100.5,0 153.5,0 153.5,0 156.5,0 159.5,-3 159.5,-6 159.5,-6 159.5,-12 159.5,-12 159.5,-15 156.5,-18 153.5,-18"/>
<text text-anchor="middle" x="127" y="-6.8" font-family="Helvetica,sans-Serif" font-size="9.00" fill="red">preact&#45;fetch</text>
</g>
<!-- src/components/Boilerplates.jsx -->
<g id="node6" class="node">
<title>src/components/Boilerplates.jsx</title>
<g id="a_node6"><a xlink:href="src/components/Boilerplates.jsx" xlink:title="Boilerplates.jsx">
<path fill="#ffff77" stroke="black" d="M160.5,-474C160.5,-474 93.5,-474 93.5,-474 90.5,-474 87.5,-471 87.5,-468 87.5,-468 87.5,-462 87.5,-462 87.5,-459 90.5,-456 93.5,-456 93.5,-456 160.5,-456 160.5,-456 163.5,-456 166.5,-459 166.5,-462 166.5,-462 166.5,-468 166.5,-468 166.5,-471 163.5,-474 160.5,-474"/>
<text text-anchor="middle" x="127" y="-462.8" font-family="Helvetica,sans-Serif" font-size="9.00">Boilerplates.jsx</text>
</a>
</g>
</g>
<!-- src/components/Boilerplates.jsx&#45;&gt;csz -->
<g id="edge1" class="edge">
<title>src/components/Boilerplates.jsx&#45;&gt;csz</title>
<path fill="none" stroke="#000000" stroke-width="2" stroke-opacity="0.200000" d="M162.05,-474.12C164.32,-475.77 166.36,-477.71 168,-480 184.26,-502.68 155.96,-711.59 176,-731 203.93,-758.06 319.43,-753.7 351,-731 387.48,-704.77 393.44,-646.09 394.13,-618.23"/>
<polygon fill="#000000" fill-opacity="0.200000" stroke="#000000" stroke-width="2" stroke-opacity="0.200000" points="396.23,-618.19 394.21,-612.16 392.03,-618.13 396.23,-618.19"/>
</g>
<!-- src/components/Boilerplates.jsx&#45;&gt;preact -->
<g id="edge2" class="edge">
<title>src/components/Boilerplates.jsx&#45;&gt;preact</title>
<path fill="none" stroke="#000000" stroke-width="2" stroke-opacity="0.200000" d="M162.03,-455.87C164.31,-454.22 166.35,-452.29 168,-450 181.98,-430.61 160.75,-253.41 176,-235 209.15,-194.98 238.36,-214.81 290,-209 350.06,-202.24 371.68,-182.48 426,-209 440.96,-216.31 451.86,-232.43 458.27,-244.41"/>
<polygon fill="#000000" fill-opacity="0.200000" stroke="#000000" stroke-width="2" stroke-opacity="0.200000" points="456.47,-245.49 461.06,-249.89 460.21,-243.59 456.47,-245.49"/>
</g>
<!-- src/components/Button.jsx -->
<g id="node7" class="node">
<title>src/components/Button.jsx</title>
<g id="a_node7"><a xlink:href="src/components/Button.jsx" xlink:title="Button.jsx">
<path fill="#ffff77" stroke="black" d="M251,-534C251,-534 207,-534 207,-534 204,-534 201,-531 201,-528 201,-528 201,-522 201,-522 201,-519 204,-516 207,-516 207,-516 251,-516 251,-516 254,-516 257,-519 257,-522 257,-522 257,-528 257,-528 257,-531 254,-534 251,-534"/>
<text text-anchor="middle" x="229" y="-522.8" font-family="Helvetica,sans-Serif" font-size="9.00">Button.jsx</text>
</a>
</g>
</g>
<!-- src/components/Button.jsx&#45;&gt;csz -->
<g id="edge3" class="edge">
<title>src/components/Button.jsx&#45;&gt;csz</title>
<path fill="none" stroke="#000000" stroke-width="2" stroke-opacity="0.200000" d="M240.64,-534.07C257.12,-548.09 287.22,-573.56 290,-575 312.51,-586.68 340.35,-593.85 361.56,-598"/>
<polygon fill="#000000" fill-opacity="0.200000" stroke="#000000" stroke-width="2" stroke-opacity="0.200000" points="361.36,-600.1 367.64,-599.14 362.13,-595.97 361.36,-600.1"/>
</g>
<!-- src/components/Button.jsx&#45;&gt;preact -->
<g id="edge4" class="edge">
<title>src/components/Button.jsx&#45;&gt;preact</title>
<path fill="none" stroke="#000000" stroke-width="2" stroke-opacity="0.200000" d="M255.39,-515.95C265.19,-511.2 275.57,-504.37 282,-495 294.98,-476.08 276.13,-462.27 290,-444 310.08,-417.54 406.01,-408.53 426,-382 449.53,-350.77 424.25,-331.21 439,-295 442.23,-287.08 447.54,-279.26 452.52,-272.95"/>
<polygon fill="#000000" fill-opacity="0.200000" stroke="#000000" stroke-width="2" stroke-opacity="0.200000" points="454.39,-273.99 456.58,-268.03 451.14,-271.32 454.39,-273.99"/>
</g>
<!-- src/components/EmbedCode.jsx -->
<g id="node8" class="node">
<title>src/components/EmbedCode.jsx</title>
<g id="a_node8"><a xlink:href="src/components/EmbedCode.jsx" xlink:title="EmbedCode.jsx">
<path fill="#ffff77" stroke="black" d="M162,-324C162,-324 92,-324 92,-324 89,-324 86,-321 86,-318 86,-318 86,-312 86,-312 86,-309 89,-306 92,-306 92,-306 162,-306 162,-306 165,-306 168,-309 168,-312 168,-312 168,-318 168,-318 168,-321 165,-324 162,-324"/>
<text text-anchor="middle" x="127" y="-312.8" font-family="Helvetica,sans-Serif" font-size="9.00">EmbedCode.jsx</text>
</a>
</g>
</g>
<!-- src/components/EmbedCode.jsx&#45;&gt;preact -->
<g id="edge5" class="edge">
<title>src/components/EmbedCode.jsx&#45;&gt;preact</title>
<path fill="none" stroke="#000000" stroke-width="2" stroke-opacity="0.200000" d="M128.38,-305.98C130.23,-266.39 139.82,-108.56 176,-79 219.02,-43.85 382.76,-44.12 426,-79 451.65,-99.68 461.27,-203.71 464.05,-243.49"/>
<polygon fill="#000000" fill-opacity="0.200000" stroke="#000000" stroke-width="2" stroke-opacity="0.200000" points="461.98,-243.88 464.47,-249.73 466.17,-243.6 461.98,-243.88"/>
</g>
<!-- src/components/Error.jsx -->
<g id="node9" class="node">
<title>src/components/Error.jsx</title>
<g id="a_node9"><a xlink:href="src/components/Error.jsx" xlink:title="Error.jsx">
<path fill="#ffff77" stroke="black" d="M250,-354C250,-354 208,-354 208,-354 205,-354 202,-351 202,-348 202,-348 202,-342 202,-342 202,-339 205,-336 208,-336 208,-336 250,-336 250,-336 253,-336 256,-339 256,-342 256,-342 256,-348 256,-348 256,-351 253,-354 250,-354"/>
<text text-anchor="middle" x="229" y="-342.8" font-family="Helvetica,sans-Serif" font-size="9.00">Error.jsx</text>
</a>
</g>
</g>
<!-- src/components/Error.jsx&#45;&gt;preact -->
<g id="edge6" class="edge">
<title>src/components/Error.jsx&#45;&gt;preact</title>
<path fill="none" stroke="#000000" stroke-width="2" stroke-opacity="0.200000" d="M247.88,-335.99C259.68,-330.21 275.58,-322.73 290,-317 339.06,-297.5 397.56,-279.05 432.96,-268.39"/>
<polygon fill="#000000" fill-opacity="0.200000" stroke="#000000" stroke-width="2" stroke-opacity="0.200000" points="433.72,-270.35 438.86,-266.62 432.51,-266.33 433.72,-270.35"/>
</g>
<!-- src/components/Footer.jsx -->
<g id="node10" class="node">
<title>src/components/Footer.jsx</title>
<g id="a_node10"><a xlink:href="src/components/Footer.jsx" xlink:title="Footer.jsx">
<path fill="#ffff77" stroke="black" d="M149,-384C149,-384 105,-384 105,-384 102,-384 99,-381 99,-378 99,-378 99,-372 99,-372 99,-369 102,-366 105,-366 105,-366 149,-366 149,-366 152,-366 155,-369 155,-372 155,-372 155,-378 155,-378 155,-381 152,-384 149,-384"/>
<text text-anchor="middle" x="127" y="-372.8" font-family="Helvetica,sans-Serif" font-size="9.00">Footer.jsx</text>
</a>
</g>
</g>
<!-- src/components/Footer.jsx&#45;&gt;csz -->
<g id="edge9" class="edge">
<title>src/components/Footer.jsx&#45;&gt;csz</title>
<path fill="none" stroke="#000000" stroke-width="2" stroke-opacity="0.200000" d="M155.07,-380.19C160.13,-382.39 164.81,-385.53 168,-390 177.46,-403.26 164.33,-671.64 176,-683 236,-741.39 342.12,-652.4 380.04,-616.72"/>
<polygon fill="#000000" fill-opacity="0.200000" stroke="#000000" stroke-width="2" stroke-opacity="0.200000" points="381.83,-617.91 384.73,-612.25 378.94,-614.87 381.83,-617.91"/>
</g>
<!-- src/components/Footer.jsx&#45;&gt;preact -->
<g id="edge10" class="edge">
<title>src/components/Footer.jsx&#45;&gt;preact</title>
<path fill="none" stroke="#000000" stroke-width="2" stroke-opacity="0.200000" d="M155.05,-369.79C160.1,-367.59 164.8,-364.46 168,-360 182.87,-339.33 157.69,-148.69 176,-131 215.96,-92.41 381.36,-97.93 426,-131 461.77,-157.5 465.84,-216.05 465.63,-243.82"/>
<polygon fill="#000000" fill-opacity="0.200000" stroke="#000000" stroke-width="2" stroke-opacity="0.200000" points="463.53,-243.83 465.51,-249.87 467.73,-243.92 463.53,-243.83"/>
</g>
<!-- src/components/Footer.jsx&#45;&gt;src/components/Error.jsx -->
<g id="edge7" class="edge">
<title>src/components/Footer.jsx&#45;&gt;src/components/Error.jsx</title>
<path fill="none" stroke="#000000" stroke-width="2" stroke-opacity="0.200000" d="M155.13,-366.41C161.93,-364.28 169.23,-362.03 176,-360 182.41,-358.08 189.27,-356.06 195.85,-354.16"/>
<polygon fill="#000000" fill-opacity="0.200000" stroke="#000000" stroke-width="2" stroke-opacity="0.200000" points="196.6,-356.12 201.78,-352.44 195.43,-352.09 196.6,-356.12"/>
</g>
<!-- src/components/Loading.jsx -->
<g id="node11" class="node">
<title>src/components/Loading.jsx</title>
<g id="a_node11"><a xlink:href="src/components/Loading.jsx" xlink:title="Loading.jsx">
<path fill="#ffff77" stroke="black" d="M255,-384C255,-384 203,-384 203,-384 200,-384 197,-381 197,-378 197,-378 197,-372 197,-372 197,-369 200,-366 203,-366 203,-366 255,-366 255,-366 258,-366 261,-369 261,-372 261,-372 261,-378 261,-378 261,-381 258,-384 255,-384"/>
<text text-anchor="middle" x="229" y="-372.8" font-family="Helvetica,sans-Serif" font-size="9.00">Loading.jsx</text>
</a>
</g>
</g>
<!-- src/components/Footer.jsx&#45;&gt;src/components/Loading.jsx -->
<g id="edge8" class="edge">
<title>src/components/Footer.jsx&#45;&gt;src/components/Loading.jsx</title>
<path fill="none" stroke="#000000" stroke-width="2" stroke-opacity="0.200000" d="M155.06,-375C166,-375 178.8,-375 190.6,-375"/>
<polygon fill="#000000" fill-opacity="0.200000" stroke="#000000" stroke-width="2" stroke-opacity="0.200000" points="190.67,-377.1 196.67,-375 190.67,-372.9 190.67,-377.1"/>
</g>
<!-- src/components/Loading.jsx&#45;&gt;csz -->
<g id="edge25" class="edge">
<title>src/components/Loading.jsx&#45;&gt;csz</title>
<path fill="none" stroke="#000000" stroke-width="2" stroke-opacity="0.200000" d="M261.24,-377.75C269.1,-379.96 276.78,-383.71 282,-390 293.97,-404.43 278.72,-459.02 290,-474 307.53,-497.27 332.31,-475.65 351,-498 369.9,-520.6 351.97,-536.1 364,-563 368.26,-572.53 375.14,-581.93 381.23,-589.22"/>
<polygon fill="#000000" fill-opacity="0.200000" stroke="#000000" stroke-width="2" stroke-opacity="0.200000" points="379.77,-590.75 385.29,-593.91 382.95,-588 379.77,-590.75"/>
</g>
<!-- src/components/Loading.jsx&#45;&gt;preact -->
<g id="edge26" class="edge">
<title>src/components/Loading.jsx&#45;&gt;preact</title>
<path fill="none" stroke="#000000" stroke-width="2" stroke-opacity="0.200000" d="M261.01,-370.64C268.51,-368.41 276.07,-365.06 282,-360 288.35,-354.58 283.88,-348.68 290,-343 313.72,-320.99 398.02,-307.25 426,-291 434.98,-285.78 444.02,-278.53 451.12,-272.25"/>
<polygon fill="#000000" fill-opacity="0.200000" stroke="#000000" stroke-width="2" stroke-opacity="0.200000" points="452.67,-273.68 455.71,-268.09 449.85,-270.56 452.67,-273.68"/>
</g>
<!-- src/components/Header.jsx -->
<g id="node12" class="node">
<title>src/components/Header.jsx</title>
<g id="a_node12"><a xlink:href="src/components/Header.jsx" xlink:title="Header.jsx">
<path fill="#ffff77" stroke="black" d="M151.5,-414C151.5,-414 102.5,-414 102.5,-414 99.5,-414 96.5,-411 96.5,-408 96.5,-408 96.5,-402 96.5,-402 96.5,-399 99.5,-396 102.5,-396 102.5,-396 151.5,-396 151.5,-396 154.5,-396 157.5,-399 157.5,-402 157.5,-402 157.5,-408 157.5,-408 157.5,-411 154.5,-414 151.5,-414"/>
<text text-anchor="middle" x="127" y="-402.8" font-family="Helvetica,sans-Serif" font-size="9.00">Header.jsx</text>
</a>
</g>
</g>
<!-- src/components/Header.jsx&#45;&gt;csz -->
<g id="edge12" class="edge">
<title>src/components/Header.jsx&#45;&gt;csz</title>
<path fill="none" stroke="#000000" stroke-width="2" stroke-opacity="0.200000" d="M157.77,-411.63C161.74,-413.71 165.34,-416.43 168,-420 183.95,-441.45 161.03,-517.86 176,-540 205.28,-583.31 235.06,-567.98 282,-591 285.57,-592.75 286.17,-593.94 290,-595 313.41,-601.48 340.83,-603.37 361.65,-603.7"/>
<polygon fill="#000000" fill-opacity="0.200000" stroke="#000000" stroke-width="2" stroke-opacity="0.200000" points="361.86,-605.8 367.88,-603.75 361.9,-601.6 361.86,-605.8"/>
</g>
<!-- src/components/Header.jsx&#45;&gt;preact -->
<g id="edge13" class="edge">
<title>src/components/Header.jsx&#45;&gt;preact</title>
<path fill="none" stroke="#000000" stroke-width="2" stroke-opacity="0.200000" d="M157.86,-398.43C161.81,-396.35 165.4,-393.61 168,-390 181.47,-371.34 161.3,-200.71 176,-183 211.67,-140.01 379.99,-125.33 426,-157 454.57,-176.66 462.22,-220.31 464.26,-243.62"/>
<polygon fill="#000000" fill-opacity="0.200000" stroke="#000000" stroke-width="2" stroke-opacity="0.200000" points="462.19,-244.06 464.72,-249.89 466.38,-243.75 462.19,-244.06"/>
</g>
<!-- src/components/Title.jsx -->
<g id="node13" class="node">
<title>src/components/Title.jsx</title>
<g id="a_node13"><a xlink:href="src/components/Title.jsx" xlink:title="Title.jsx">
<path fill="#ffff77" stroke="black" d="M250,-444C250,-444 208,-444 208,-444 205,-444 202,-441 202,-438 202,-438 202,-432 202,-432 202,-429 205,-426 208,-426 208,-426 250,-426 250,-426 253,-426 256,-429 256,-432 256,-432 256,-438 256,-438 256,-441 253,-444 250,-444"/>
<text text-anchor="middle" x="229" y="-432.8" font-family="Helvetica,sans-Serif" font-size="9.00">Title.jsx</text>
</a>
</g>
</g>
<!-- src/components/Header.jsx&#45;&gt;src/components/Title.jsx -->
<g id="edge11" class="edge">
<title>src/components/Header.jsx&#45;&gt;src/components/Title.jsx</title>
<path fill="none" stroke="#000000" stroke-width="2" stroke-opacity="0.200000" d="M156.65,-414.07C163.01,-416.05 169.73,-418.12 176,-420 182.41,-421.92 189.27,-423.94 195.85,-425.84"/>
<polygon fill="#000000" fill-opacity="0.200000" stroke="#000000" stroke-width="2" stroke-opacity="0.200000" points="195.43,-427.91 201.78,-427.56 196.6,-423.88 195.43,-427.91"/>
</g>
<!-- src/components/Title.jsx&#45;&gt;csz -->
<g id="edge39" class="edge">
<title>src/components/Title.jsx&#45;&gt;csz</title>
<path fill="none" stroke="#000000" stroke-width="2" stroke-opacity="0.200000" d="M255.74,-444.12C265.48,-448.86 275.72,-455.66 282,-465 296.53,-486.59 274.34,-502.22 290,-523 307.84,-546.68 327.45,-531.99 351,-550 358.56,-555.78 373.57,-575.18 383.7,-588.83"/>
<polygon fill="#000000" fill-opacity="0.200000" stroke="#000000" stroke-width="2" stroke-opacity="0.200000" points="382.2,-590.33 387.45,-593.92 385.58,-587.84 382.2,-590.33"/>
</g>
<!-- src/components/Title.jsx&#45;&gt;preact -->
<g id="edge40" class="edge">
<title>src/components/Title.jsx&#45;&gt;preact</title>
<path fill="none" stroke="#000000" stroke-width="2" stroke-opacity="0.200000" d="M256.08,-432.56C265.29,-430.49 275.06,-426.74 282,-420 290.37,-411.87 282.25,-403.72 290,-395 312.06,-370.17 403.69,-357.61 426,-333 437.99,-319.77 430.8,-310.85 439,-295 442.93,-287.4 448.34,-279.63 453.2,-273.26"/>
<polygon fill="#000000" fill-opacity="0.200000" stroke="#000000" stroke-width="2" stroke-opacity="0.200000" points="455.06,-274.29 457.12,-268.27 451.76,-271.7 455.06,-274.29"/>
</g>
<!-- src/components/Hero.jsx -->
<g id="node14" class="node">
<title>src/components/Hero.jsx</title>
<g id="a_node14"><a xlink:href="src/components/Hero.jsx" xlink:title="Hero.jsx">
<path fill="#ffff77" stroke="black" d="M148,-534C148,-534 106,-534 106,-534 103,-534 100,-531 100,-528 100,-528 100,-522 100,-522 100,-519 103,-516 106,-516 106,-516 148,-516 148,-516 151,-516 154,-519 154,-522 154,-522 154,-528 154,-528 154,-531 151,-534 148,-534"/>
<text text-anchor="middle" x="127" y="-522.8" font-family="Helvetica,sans-Serif" font-size="9.00">Hero.jsx</text>
</a>
</g>
</g>
<!-- src/components/Hero.jsx&#45;&gt;csz -->
<g id="edge16" class="edge">
<title>src/components/Hero.jsx&#45;&gt;csz</title>
<path fill="none" stroke="#000000" stroke-width="2" stroke-opacity="0.200000" d="M128.21,-534.27C129.41,-576.54 136.67,-750.31 176,-783 235.82,-832.71 289.95,-831.19 351,-783 376.99,-762.49 389,-658.36 392.7,-618.53"/>
<polygon fill="#000000" fill-opacity="0.200000" stroke="#000000" stroke-width="2" stroke-opacity="0.200000" points="394.81,-618.45 393.26,-612.29 390.63,-618.08 394.81,-618.45"/>
</g>
<!-- src/components/Hero.jsx&#45;&gt;preact -->
<g id="edge17" class="edge">
<title>src/components/Hero.jsx&#45;&gt;preact</title>
<path fill="none" stroke="#000000" stroke-width="2" stroke-opacity="0.200000" d="M154.19,-520.12C159.56,-517.9 164.6,-514.68 168,-510 179.77,-493.8 165.95,-347.31 176,-330 206.08,-278.17 232.44,-274.66 290,-258 316.04,-250.46 323.89,-257.88 351,-258 378.5,-258.12 409.73,-258.4 432.54,-258.64"/>
<polygon fill="#000000" fill-opacity="0.200000" stroke="#000000" stroke-width="2" stroke-opacity="0.200000" points="432.72,-260.74 438.74,-258.7 432.76,-256.54 432.72,-260.74"/>
</g>
<!-- src/components/Hero.jsx&#45;&gt;src/components/Button.jsx -->
<g id="edge14" class="edge">
<title>src/components/Hero.jsx&#45;&gt;src/components/Button.jsx</title>
<path fill="none" stroke="#000000" stroke-width="2" stroke-opacity="0.200000" d="M154.01,-525C166.35,-525 181.23,-525 194.41,-525"/>
<polygon fill="#000000" fill-opacity="0.200000" stroke="#000000" stroke-width="2" stroke-opacity="0.200000" points="194.72,-527.1 200.72,-525 194.72,-522.9 194.72,-527.1"/>
</g>
<!-- src/components/Link.jsx -->
<g id="node15" class="node">
<title>src/components/Link.jsx</title>
<g id="a_node15"><a xlink:href="src/components/Link.jsx" xlink:title="Link.jsx">
<path fill="#ffff77" stroke="black" d="M250,-489C250,-489 208,-489 208,-489 205,-489 202,-486 202,-483 202,-483 202,-477 202,-477 202,-474 205,-471 208,-471 208,-471 250,-471 250,-471 253,-471 256,-474 256,-477 256,-477 256,-483 256,-483 256,-486 253,-489 250,-489"/>
<text text-anchor="middle" x="229" y="-477.8" font-family="Helvetica,sans-Serif" font-size="9.00">Link.jsx</text>
</a>
</g>
</g>
<!-- src/components/Hero.jsx&#45;&gt;src/components/Link.jsx -->
<g id="edge15" class="edge">
<title>src/components/Hero.jsx&#45;&gt;src/components/Link.jsx</title>
<path fill="none" stroke="#000000" stroke-width="2" stroke-opacity="0.200000" d="M153.55,-515.87C158.39,-514.02 163.38,-512.02 168,-510 180.64,-504.49 194.41,-497.66 205.58,-491.91"/>
<polygon fill="#000000" fill-opacity="0.200000" stroke="#000000" stroke-width="2" stroke-opacity="0.200000" points="206.8,-493.64 211.16,-489.02 204.86,-489.92 206.8,-493.64"/>
</g>
<!-- src/components/Link.jsx&#45;&gt;csz -->
<g id="edge23" class="edge">
<title>src/components/Link.jsx&#45;&gt;csz</title>
<path fill="none" stroke="#000000" stroke-width="2" stroke-opacity="0.200000" d="M254.9,-489.07C264.75,-493.86 275.29,-500.7 282,-510 292.35,-524.35 278.9,-535.22 290,-549 308.6,-572.09 324.82,-562.08 351,-576 359.19,-580.35 367.91,-585.69 375.34,-590.46"/>
<polygon fill="#000000" fill-opacity="0.200000" stroke="#000000" stroke-width="2" stroke-opacity="0.200000" points="374.56,-592.46 380.74,-593.98 376.86,-588.94 374.56,-592.46"/>
</g>
<!-- src/components/Link.jsx&#45;&gt;preact -->
<g id="edge24" class="edge">
<title>src/components/Link.jsx&#45;&gt;preact</title>
<path fill="none" stroke="#000000" stroke-width="2" stroke-opacity="0.200000" d="M254.07,-470.97C264.01,-466.13 274.86,-459.23 282,-450 290.18,-439.42 281.39,-431.23 290,-421 333.04,-369.91 384.58,-409.41 426,-357 443.46,-334.91 427.62,-320.75 439,-295 442.46,-287.18 447.8,-279.37 452.75,-273.04"/>
<polygon fill="#000000" fill-opacity="0.200000" stroke="#000000" stroke-width="2" stroke-opacity="0.200000" points="454.61,-274.08 456.76,-268.1 451.34,-271.44 454.61,-274.08"/>
</g>
<!-- ✖ -->
<g id="node18" class="node">
<title>✖</title>
<path fill="#ffffcc" stroke="red" d="M341.5,-282C341.5,-282 299.5,-282 299.5,-282 296.5,-282 293.5,-279 293.5,-276 293.5,-276 293.5,-270 293.5,-270 293.5,-267 296.5,-264 299.5,-264 299.5,-264 341.5,-264 341.5,-264 344.5,-264 347.5,-267 347.5,-270 347.5,-270 347.5,-276 347.5,-276 347.5,-279 344.5,-282 341.5,-282"/>
<text text-anchor="middle" x="320.5" y="-270.8" font-family="Helvetica,sans-Serif" font-size="9.00" fill="red">✖</text>
</g>
<!-- src/components/Link.jsx&#45;&gt;✖ -->
<g id="edge22" class="edge">
<title>src/components/Link.jsx&#45;&gt;✖</title>
<path fill="none" stroke="#000000" stroke-width="2" stroke-opacity="0.200000" d="M256.15,-471.14C265.95,-466.44 276.12,-459.6 282,-450 300.01,-420.59 273.74,-325.42 290,-295 291.82,-291.6 294.42,-288.58 297.33,-285.95"/>
<polygon fill="#000000" fill-opacity="0.200000" stroke="#000000" stroke-width="2" stroke-opacity="0.200000" points="298.73,-287.52 302.1,-282.14 296.1,-284.24 298.73,-287.52"/>
</g>
<!-- src/components/Item.jsx -->
<g id="node16" class="node">
<title>src/components/Item.jsx</title>
<g id="a_node16"><a xlink:href="src/components/Item.jsx" xlink:title="Item.jsx">
<path fill="#ffff77" stroke="black" d="M487,-494C487,-494 445,-494 445,-494 442,-494 439,-491 439,-488 439,-488 439,-482 439,-482 439,-479 442,-476 445,-476 445,-476 487,-476 487,-476 490,-476 493,-479 493,-482 493,-482 493,-488 493,-488 493,-491 490,-494 487,-494"/>
<text text-anchor="middle" x="466" y="-482.8" font-family="Helvetica,sans-Serif" font-size="9.00">Item.jsx</text>
</a>
</g>
</g>
<!-- src/components/Item.jsx&#45;&gt;csz -->
<g id="edge18" class="edge">
<title>src/components/Item.jsx&#45;&gt;csz</title>
<path fill="none" stroke="#000000" stroke-width="2" stroke-opacity="0.200000" d="M460.96,-494.42C454.39,-509.38 440.65,-539.3 426,-563 420.44,-572 413.37,-581.5 407.5,-588.98"/>
<polygon fill="#000000" fill-opacity="0.200000" stroke="#000000" stroke-width="2" stroke-opacity="0.200000" points="405.75,-587.8 403.65,-593.8 409.03,-590.42 405.75,-587.8"/>
</g>
<!-- src/components/Item.jsx&#45;&gt;preact -->
<g id="edge19" class="edge">
<title>src/components/Item.jsx&#45;&gt;preact</title>
<path fill="none" stroke="#000000" stroke-width="2" stroke-opacity="0.200000" d="M466,-475.69C466,-408.57 466,-341.46 466,-274.35"/>
<polygon fill="#000000" fill-opacity="0.200000" stroke="#000000" stroke-width="2" stroke-opacity="0.200000" points="468.1,-274.27 466,-268.27 463.9,-274.27 468.1,-274.27"/>
</g>
<!-- src/components/ItemList.jsx -->
<g id="node17" class="node">
<title>src/components/ItemList.jsx</title>
<g id="a_node17"><a xlink:href="src/components/ItemList.jsx" xlink:title="ItemList.jsx">
<path fill="#ffff77" stroke="black" d="M420,-494C420,-494 370,-494 370,-494 367,-494 364,-491 364,-488 364,-488 364,-482 364,-482 364,-479 367,-476 370,-476 370,-476 420,-476 420,-476 423,-476 426,-479 426,-482 426,-482 426,-488 426,-488 426,-491 423,-494 420,-494"/>
<text text-anchor="middle" x="395" y="-482.8" font-family="Helvetica,sans-Serif" font-size="9.00">ItemList.jsx</text>
</a>
</g>
</g>
<!-- src/components/ItemList.jsx&#45;&gt;preact -->
<g id="edge21" class="edge">
<title>src/components/ItemList.jsx&#45;&gt;preact</title>
<path fill="none" stroke="#000000" stroke-width="2" stroke-opacity="0.200000" d="M417.27,-475.82C420.7,-473.43 423.83,-470.51 426,-467 446.13,-434.38 425.84,-331 439,-295 441.9,-287.08 447.06,-279.36 452.03,-273.11"/>
<polygon fill="#000000" fill-opacity="0.200000" stroke="#000000" stroke-width="2" stroke-opacity="0.200000" points="453.87,-274.18 456.11,-268.23 450.65,-271.49 453.87,-274.18"/>
</g>
<!-- src/components/ItemList.jsx&#45;&gt;src/components/Item.jsx -->
<g id="edge20" class="edge">
<title>src/components/ItemList.jsx&#45;&gt;src/components/Item.jsx</title>
<path fill="none" stroke="#000000" stroke-width="2" stroke-opacity="0.200000" d="M426.06,-485C428.17,-485 430.3,-485 432.42,-485"/>
<polygon fill="#000000" fill-opacity="0.200000" stroke="#000000" stroke-width="2" stroke-opacity="0.200000" points="432.71,-487.1 438.71,-485 432.71,-482.9 432.71,-487.1"/>
</g>
<!-- src/components/Manifesto.jsx -->
<g id="node19" class="node">
<title>src/components/Manifesto.jsx</title>
<g id="a_node19"><a xlink:href="src/components/Manifesto.jsx" xlink:title="Manifesto.jsx">
<path fill="#ffff77" stroke="black" d="M156,-504C156,-504 98,-504 98,-504 95,-504 92,-501 92,-498 92,-498 92,-492 92,-492 92,-489 95,-486 98,-486 98,-486 156,-486 156,-486 159,-486 162,-489 162,-492 162,-492 162,-498 162,-498 162,-501 159,-504 156,-504"/>
<text text-anchor="middle" x="127" y="-492.8" font-family="Helvetica,sans-Serif" font-size="9.00">Manifesto.jsx</text>
</a>
</g>
</g>
<!-- src/components/Manifesto.jsx&#45;&gt;csz -->
<g id="edge27" class="edge">
<title>src/components/Manifesto.jsx&#45;&gt;csz</title>
<path fill="none" stroke="#000000" stroke-width="2" stroke-opacity="0.200000" d="M162.04,-504.12C164.32,-505.77 166.36,-507.71 168,-510 184,-532.31 156.27,-737.9 176,-757 203.94,-784.05 320.02,-780.51 351,-757 373.38,-740.02 387.25,-653.62 392.08,-618.19"/>
<polygon fill="#000000" fill-opacity="0.200000" stroke="#000000" stroke-width="2" stroke-opacity="0.200000" points="394.17,-618.42 392.87,-612.2 390,-617.87 394.17,-618.42"/>
</g>
<!-- src/components/Manifesto.jsx&#45;&gt;preact -->
<g id="edge28" class="edge">
<title>src/components/Manifesto.jsx&#45;&gt;preact</title>
<path fill="none" stroke="#000000" stroke-width="2" stroke-opacity="0.200000" d="M162.03,-485.87C164.31,-484.23 166.35,-482.29 168,-480 182.23,-460.24 160.47,-279.76 176,-261 209.14,-220.97 238.36,-240.81 290,-235 350.06,-228.24 367.84,-218.54 426,-235 434.01,-237.27 441.99,-241.69 448.62,-246.13"/>
<polygon fill="#000000" fill-opacity="0.200000" stroke="#000000" stroke-width="2" stroke-opacity="0.200000" points="447.74,-248.08 453.85,-249.82 450.16,-244.65 447.74,-248.08"/>
</g>
<!-- src/components/Section.jsx -->
<g id="node20" class="node">
<title>src/components/Section.jsx</title>
<g id="a_node20"><a xlink:href="src/components/Section.jsx" xlink:title="Section.jsx">
<path fill="#ffff77" stroke="black" d="M345,-468C345,-468 296,-468 296,-468 293,-468 290,-465 290,-462 290,-462 290,-456 290,-456 290,-453 293,-450 296,-450 296,-450 345,-450 345,-450 348,-450 351,-453 351,-456 351,-456 351,-462 351,-462 351,-465 348,-468 345,-468"/>
<text text-anchor="middle" x="320.5" y="-456.8" font-family="Helvetica,sans-Serif" font-size="9.00">Section.jsx</text>
</a>
</g>
</g>
<!-- src/components/Section.jsx&#45;&gt;csz -->
<g id="edge30" class="edge">
<title>src/components/Section.jsx&#45;&gt;csz</title>
<path fill="none" stroke="#000000" stroke-width="2" stroke-opacity="0.200000" d="M341.91,-468.16C345.42,-470.57 348.68,-473.5 351,-477 372.39,-509.2 349.06,-527.35 364,-563 368.03,-572.63 374.9,-582.04 381.04,-589.31"/>
<polygon fill="#000000" fill-opacity="0.200000" stroke="#000000" stroke-width="2" stroke-opacity="0.200000" points="379.6,-590.85 385.14,-593.98 382.76,-588.08 379.6,-590.85"/>
</g>
<!-- src/components/Section.jsx&#45;&gt;preact -->
<g id="edge31" class="edge">
<title>src/components/Section.jsx&#45;&gt;preact</title>
<path fill="none" stroke="#000000" stroke-width="2" stroke-opacity="0.200000" d="M351.27,-462.77C375.06,-463.96 407.41,-461.17 426,-441 448.07,-417.05 427.61,-325.52 439,-295 441.95,-287.1 447.12,-279.38 452.08,-273.13"/>
<polygon fill="#000000" fill-opacity="0.200000" stroke="#000000" stroke-width="2" stroke-opacity="0.200000" points="453.92,-274.2 456.15,-268.25 450.69,-271.51 453.92,-274.2"/>
</g>
<!-- src/components/Section.jsx&#45;&gt;src/components/ItemList.jsx -->
<g id="edge29" class="edge">
<title>src/components/Section.jsx&#45;&gt;src/components/ItemList.jsx</title>
<path fill="none" stroke="#000000" stroke-width="2" stroke-opacity="0.200000" d="M346.86,-468.09C352.01,-469.94 357.5,-471.91 362.83,-473.82"/>
<polygon fill="#000000" fill-opacity="0.200000" stroke="#000000" stroke-width="2" stroke-opacity="0.200000" points="362.18,-475.82 368.53,-475.87 363.6,-471.87 362.18,-475.82"/>
</g>
<!-- src/components/SectionList.jsx -->
<g id="node21" class="node">
<title>src/components/SectionList.jsx</title>
<g id="a_node21"><a xlink:href="src/components/SectionList.jsx" xlink:title="SectionList.jsx">
<path fill="#ffff77" stroke="black" d="M260.5,-414C260.5,-414 197.5,-414 197.5,-414 194.5,-414 191.5,-411 191.5,-408 191.5,-408 191.5,-402 191.5,-402 191.5,-399 194.5,-396 197.5,-396 197.5,-396 260.5,-396 260.5,-396 263.5,-396 266.5,-399 266.5,-402 266.5,-402 266.5,-408 266.5,-408 266.5,-411 263.5,-414 260.5,-414"/>
<text text-anchor="middle" x="229" y="-402.8" font-family="Helvetica,sans-Serif" font-size="9.00">SectionList.jsx</text>
</a>
</g>
</g>
<!-- src/components/SectionList.jsx&#45;&gt;csz -->
<g id="edge33" class="edge">
<title>src/components/SectionList.jsx&#45;&gt;csz</title>
<path fill="none" stroke="#000000" stroke-width="2" stroke-opacity="0.200000" d="M266.57,-409.56C272.47,-411.84 277.96,-415.17 282,-420 304.08,-446.39 269.76,-469.17 290,-497 307.44,-520.98 331.05,-502.06 351,-524 363.29,-537.52 355.52,-546.82 364,-563 368.84,-572.25 375.76,-581.63 381.73,-588.99"/>
<polygon fill="#000000" fill-opacity="0.200000" stroke="#000000" stroke-width="2" stroke-opacity="0.200000" points="380.22,-590.46 385.67,-593.73 383.45,-587.77 380.22,-590.46"/>
</g>
<!-- src/components/SectionList.jsx&#45;&gt;preact -->
<g id="edge34" class="edge">
<title>src/components/SectionList.jsx&#45;&gt;preact</title>
<path fill="none" stroke="#000000" stroke-width="2" stroke-opacity="0.200000" d="M266.67,-399.11C272.28,-396.95 277.64,-394.01 282,-390 289.35,-383.24 283.08,-376.2 290,-369 312.77,-345.32 400.15,-331.28 426,-311 427.84,-309.56 443.63,-288.21 454.54,-273.32"/>
<polygon fill="#000000" fill-opacity="0.200000" stroke="#000000" stroke-width="2" stroke-opacity="0.200000" points="456.46,-274.26 458.31,-268.17 453.07,-271.78 456.46,-274.26"/>
</g>
<!-- src/components/SectionList.jsx&#45;&gt;src/components/Section.jsx -->
<g id="edge32" class="edge">
<title>src/components/SectionList.jsx&#45;&gt;src/components/Section.jsx</title>
<path fill="none" stroke="#000000" stroke-width="2" stroke-opacity="0.200000" d="M266.55,-412.89C271.93,-414.8 277.25,-417.14 282,-420 292.66,-426.43 302.33,-436.65 309.18,-445.02"/>
<polygon fill="#000000" fill-opacity="0.200000" stroke="#000000" stroke-width="2" stroke-opacity="0.200000" points="307.7,-446.53 313.06,-449.94 310.99,-443.93 307.7,-446.53"/>
</g>
<!-- src/components/Sections.jsx -->
<g id="node22" class="node">
<title>src/components/Sections.jsx</title>
<g id="a_node22"><a xlink:href="src/components/Sections.jsx" xlink:title="Sections.jsx">
<path fill="#ffff77" stroke="black" d="M153.5,-354C153.5,-354 100.5,-354 100.5,-354 97.5,-354 94.5,-351 94.5,-348 94.5,-348 94.5,-342 94.5,-342 94.5,-339 97.5,-336 100.5,-336 100.5,-336 153.5,-336 153.5,-336 156.5,-336 159.5,-339 159.5,-342 159.5,-342 159.5,-348 159.5,-348 159.5,-351 156.5,-354 153.5,-354"/>
<text text-anchor="middle" x="127" y="-342.8" font-family="Helvetica,sans-Serif" font-size="9.00">Sections.jsx</text>
</a>
</g>
</g>
<!-- src/components/Sections.jsx&#45;&gt;preact -->
<g id="edge38" class="edge">
<title>src/components/Sections.jsx&#45;&gt;preact</title>
<path fill="none" stroke="#000000" stroke-width="2" stroke-opacity="0.200000" d="M159.81,-337.34C162.99,-335.42 165.83,-333.01 168,-330 182.61,-309.7 158,-122.37 176,-105 215.98,-66.42 382.16,-70.88 426,-105 448.03,-122.14 459.6,-208.44 463.48,-243.83"/>
<polygon fill="#000000" fill-opacity="0.200000" stroke="#000000" stroke-width="2" stroke-opacity="0.200000" points="461.4,-244.07 464.12,-249.82 465.57,-243.63 461.4,-244.07"/>
</g>
<!-- src/components/Sections.jsx&#45;&gt;src/components/Error.jsx -->
<g id="edge35" class="edge">
<title>src/components/Sections.jsx&#45;&gt;src/components/Error.jsx</title>
<path fill="none" stroke="#000000" stroke-width="2" stroke-opacity="0.200000" d="M159.64,-345C171.13,-345 184.12,-345 195.67,-345"/>
<polygon fill="#000000" fill-opacity="0.200000" stroke="#000000" stroke-width="2" stroke-opacity="0.200000" points="195.92,-347.1 201.92,-345 195.92,-342.9 195.92,-347.1"/>
</g>
<!-- src/components/Sections.jsx&#45;&gt;src/components/Loading.jsx -->
<g id="edge36" class="edge">
<title>src/components/Sections.jsx&#45;&gt;src/components/Loading.jsx</title>
<path fill="none" stroke="#000000" stroke-width="2" stroke-opacity="0.200000" d="M156.65,-354.07C163.01,-356.05 169.73,-358.12 176,-360 180.85,-361.46 185.96,-362.97 191.02,-364.44"/>
<polygon fill="#000000" fill-opacity="0.200000" stroke="#000000" stroke-width="2" stroke-opacity="0.200000" points="190.55,-366.49 196.9,-366.15 191.72,-362.46 190.55,-366.49"/>
</g>
<!-- src/components/Sections.jsx&#45;&gt;src/components/SectionList.jsx -->
<g id="edge37" class="edge">
<title>src/components/Sections.jsx&#45;&gt;src/components/SectionList.jsx</title>
<path fill="none" stroke="#000000" stroke-width="2" stroke-opacity="0.200000" d="M159.57,-353.39C162.71,-355.19 165.61,-357.36 168,-360 177.27,-370.22 166.34,-380.14 176,-390 178.87,-392.93 182.28,-395.3 185.95,-397.21"/>
<polygon fill="#000000" fill-opacity="0.200000" stroke="#000000" stroke-width="2" stroke-opacity="0.200000" points="185.16,-399.16 191.49,-399.69 186.88,-395.32 185.16,-399.16"/>
</g>
<!-- src/components/Title.test.jsx -->
<g id="node23" class="node">
<title>src/components/Title.test.jsx</title>
<g id="a_node23"><a xlink:href="src/components/Title.test.jsx" xlink:title="Title.test.jsx">
<path fill="#ffff77" stroke="black" d="M152.5,-444C152.5,-444 101.5,-444 101.5,-444 98.5,-444 95.5,-441 95.5,-438 95.5,-438 95.5,-432 95.5,-432 95.5,-429 98.5,-426 101.5,-426 101.5,-426 152.5,-426 152.5,-426 155.5,-426 158.5,-429 158.5,-432 158.5,-432 158.5,-438 158.5,-438 158.5,-441 155.5,-444 152.5,-444"/>
<text text-anchor="middle" x="127" y="-432.8" font-family="Helvetica,sans-Serif" font-size="9.00">Title.test.jsx</text>
</a>
</g>
</g>
<!-- src/components/Title.test.jsx&#45;&gt;@testing&#45;library/jest&#45;dom/extend&#45;expect -->
<g id="edge42" class="edge">
<title>src/components/Title.test.jsx&#45;&gt;@testing&#45;library/jest&#45;dom/extend&#45;expect</title>
<path fill="none" stroke="#000000" stroke-width="2" stroke-opacity="0.200000" d="M158.63,-442.01C162.27,-444.03 165.56,-446.64 168,-450 179.89,-466.38 163.2,-616.32 176,-632 178.79,-635.42 182.34,-638.02 186.26,-639.98"/>
<polygon fill="#000000" fill-opacity="0.200000" stroke="#000000" stroke-width="2" stroke-opacity="0.200000" points="185.45,-641.92 191.8,-642.28 187.06,-638.04 185.45,-641.92"/>
</g>
<!-- src/components/Title.test.jsx&#45;&gt;@testing&#45;library/preact -->
<g id="edge43" class="edge">
<title>src/components/Title.test.jsx&#45;&gt;@testing&#45;library/preact</title>
<path fill="none" stroke="#000000" stroke-width="2" stroke-opacity="0.200000" d="M158.59,-442.04C162.24,-444.06 165.54,-446.66 168,-450 186.35,-474.91 158.17,-563.71 176,-589 180.82,-595.83 188.19,-600.55 195.89,-603.81"/>
<polygon fill="#000000" fill-opacity="0.200000" stroke="#000000" stroke-width="2" stroke-opacity="0.200000" points="195.45,-605.89 201.8,-606.03 196.92,-601.96 195.45,-605.89"/>
</g>
<!-- src/components/Title.test.jsx&#45;&gt;preact -->
<g id="edge44" class="edge">
<title>src/components/Title.test.jsx&#45;&gt;preact</title>
<path fill="none" stroke="#000000" stroke-width="2" stroke-opacity="0.200000" d="M158.65,-428.01C162.29,-425.98 165.57,-423.37 168,-420 181.73,-400.97 161.03,-227.06 176,-209 209.17,-168.99 238.36,-188.81 290,-183 350.06,-176.24 374.42,-151.49 426,-183 447.64,-196.22 457.77,-225.69 462.11,-243.8"/>
<polygon fill="#000000" fill-opacity="0.200000" stroke="#000000" stroke-width="2" stroke-opacity="0.200000" points="460.12,-244.5 463.46,-249.91 464.22,-243.6 460.12,-244.5"/>
</g>
<!-- src/components/Title.test.jsx&#45;&gt;src/components/Title.jsx -->
<g id="edge41" class="edge">
<title>src/components/Title.test.jsx&#45;&gt;src/components/Title.jsx</title>
<path fill="none" stroke="#000000" stroke-width="2" stroke-opacity="0.200000" d="M158.55,-435C170.29,-435 183.72,-435 195.62,-435"/>
<polygon fill="#000000" fill-opacity="0.200000" stroke="#000000" stroke-width="2" stroke-opacity="0.200000" points="195.69,-437.1 201.69,-435 195.69,-432.9 195.69,-437.1"/>
</g>
<!-- src/index.jsx -->
<g id="node24" class="node">
<title>src/index.jsx</title>
<g id="a_node24"><a xlink:href="src/index.jsx" xlink:title="index.jsx">
<path fill="#ffff77" stroke="black" d="M64,-369C64,-369 22,-369 22,-369 19,-369 16,-366 16,-363 16,-363 16,-357 16,-357 16,-354 19,-351 22,-351 22,-351 64,-351 64,-351 67,-351 70,-354 70,-357 70,-357 70,-363 70,-363 70,-366 67,-369 64,-369"/>
<text text-anchor="middle" x="43" y="-357.8" font-family="Helvetica,sans-Serif" font-size="9.00">index.jsx</text>
</a>
</g>
</g>
<!-- src/index.jsx&#45;&gt;preact -->
<g id="edge53" class="edge">
<title>src/index.jsx&#45;&gt;preact</title>
<path fill="none" stroke="#000000" stroke-width="2" stroke-opacity="0.200000" d="M44.72,-350.68C49.33,-297.72 79.57,-37 228,-37 228,-37 228,-37 321.5,-37 368.63,-37 392.37,-21.98 426,-55 452.87,-81.38 461.85,-200.47 464.25,-243.46"/>
<polygon fill="#000000" fill-opacity="0.200000" stroke="#000000" stroke-width="2" stroke-opacity="0.200000" points="462.17,-243.8 464.58,-249.68 466.36,-243.58 462.17,-243.8"/>
</g>
<!-- src/index.jsx&#45;&gt;preact&#45;fetch -->
<g id="edge54" class="edge">
<title>src/index.jsx&#45;&gt;preact&#45;fetch</title>
<path fill="none" stroke="#000000" stroke-width="2" stroke-opacity="0.200000" d="M44.36,-350.88C46.46,-300.09 57.64,-53.4 78,-27 80.9,-23.23 84.69,-20.26 88.86,-17.9"/>
<polygon fill="#000000" fill-opacity="0.200000" stroke="#000000" stroke-width="2" stroke-opacity="0.200000" points="89.84,-19.76 94.31,-15.24 87.99,-15.99 89.84,-19.76"/>
</g>
<!-- src/index.jsx&#45;&gt;src/components/Boilerplates.jsx -->
<g id="edge45" class="edge">
<title>src/index.jsx&#45;&gt;src/components/Boilerplates.jsx</title>
<path fill="none" stroke="#000000" stroke-width="2" stroke-opacity="0.200000" d="M44.84,-369.09C46.98,-387.13 54.31,-427.65 78,-450 79.17,-451.1 80.41,-452.12 81.72,-453.07"/>
<polygon fill="#000000" fill-opacity="0.200000" stroke="#000000" stroke-width="2" stroke-opacity="0.200000" points="80.84,-454.99 87.04,-456.35 83.04,-451.41 80.84,-454.99"/>
</g>
<!-- src/index.jsx&#45;&gt;src/components/EmbedCode.jsx -->
<g id="edge46" class="edge">
<title>src/index.jsx&#45;&gt;src/components/EmbedCode.jsx</title>
<path fill="none" stroke="#000000" stroke-width="2" stroke-opacity="0.200000" d="M52.16,-350.99C58.6,-344.36 68.12,-335.56 78,-330 80.27,-328.72 82.66,-327.54 85.11,-326.45"/>
<polygon fill="#000000" fill-opacity="0.200000" stroke="#000000" stroke-width="2" stroke-opacity="0.200000" points="86.18,-328.28 90.93,-324.05 84.58,-324.39 86.18,-328.28"/>
</g>
<!-- src/index.jsx&#45;&gt;src/components/Footer.jsx -->
<g id="edge47" class="edge">
<title>src/index.jsx&#45;&gt;src/components/Footer.jsx</title>
<path fill="none" stroke="#000000" stroke-width="2" stroke-opacity="0.200000" d="M70.4,-364.83C77.49,-366.13 85.26,-367.55 92.68,-368.9"/>
<polygon fill="#000000" fill-opacity="0.200000" stroke="#000000" stroke-width="2" stroke-opacity="0.200000" points="92.53,-371.01 98.81,-370.03 93.28,-366.88 92.53,-371.01"/>
</g>
<!-- src/index.jsx&#45;&gt;src/components/Header.jsx -->
<g id="edge48" class="edge">
<title>src/index.jsx&#45;&gt;src/components/Header.jsx</title>
<path fill="none" stroke="#000000" stroke-width="2" stroke-opacity="0.200000" d="M52.16,-369.01C58.6,-375.64 68.12,-384.44 78,-390 81.87,-392.18 86.1,-394.09 90.39,-395.74"/>
<polygon fill="#000000" fill-opacity="0.200000" stroke="#000000" stroke-width="2" stroke-opacity="0.200000" points="89.89,-397.79 96.25,-397.84 91.31,-393.84 89.89,-397.79"/>
</g>
<!-- src/index.jsx&#45;&gt;src/components/Hero.jsx -->
<g id="edge49" class="edge">
<title>src/index.jsx&#45;&gt;src/components/Hero.jsx</title>
<path fill="none" stroke="#000000" stroke-width="2" stroke-opacity="0.200000" d="M44.88,-369.09C47.88,-398.29 58.62,-489.01 78,-510 82.26,-514.62 87.93,-517.83 93.86,-520.05"/>
<polygon fill="#000000" fill-opacity="0.200000" stroke="#000000" stroke-width="2" stroke-opacity="0.200000" points="93.5,-522.14 99.85,-521.96 94.77,-518.14 93.5,-522.14"/>
</g>
<!-- src/index.jsx&#45;&gt;✖ -->
<g id="edge52" class="edge">
<title>src/index.jsx&#45;&gt;✖</title>
<path fill="none" stroke="#000000" stroke-width="2" stroke-opacity="0.200000" d="M45.93,-350.56C49.48,-335.91 58.53,-308.03 78,-295 141.92,-252.22 237.59,-259.29 287.15,-266.85"/>
<polygon fill="#000000" fill-opacity="0.200000" stroke="#000000" stroke-width="2" stroke-opacity="0.200000" points="287,-268.95 293.25,-267.82 287.65,-264.81 287,-268.95"/>
</g>
<!-- src/index.jsx&#45;&gt;src/components/Manifesto.jsx -->
<g id="edge50" class="edge">
<title>src/index.jsx&#45;&gt;src/components/Manifesto.jsx</title>
<path fill="none" stroke="#000000" stroke-width="2" stroke-opacity="0.200000" d="M43.83,-369.25C43.92,-391.5 47.34,-448.5 78,-480 80.36,-482.42 83.11,-484.46 86.07,-486.16"/>
<polygon fill="#000000" fill-opacity="0.200000" stroke="#000000" stroke-width="2" stroke-opacity="0.200000" points="85.28,-488.12 91.59,-488.9 87.14,-484.35 85.28,-488.12"/>
</g>
<!-- src/index.jsx&#45;&gt;src/components/Sections.jsx -->
<g id="edge51" class="edge">
<title>src/index.jsx&#45;&gt;src/components/Sections.jsx</title>
<path fill="none" stroke="#000000" stroke-width="2" stroke-opacity="0.200000" d="M70.4,-355.17C76.16,-354.12 82.36,-352.98 88.45,-351.87"/>
<polygon fill="#000000" fill-opacity="0.200000" stroke="#000000" stroke-width="2" stroke-opacity="0.200000" points="88.97,-353.91 94.5,-350.76 88.22,-349.78 88.97,-353.91"/>
</g>
</g>
</svg>
